<?xml version="1.0" encoding="UTF-8" standalone="no"?>
<svg
   width="514"
   height="512"
   viewBox="0 0 514 512"
   fill="none"
   version="1.1"
   id="svg3033"
   sodipodi:docname="builer.svg"
   inkscape:version="1.2.1 (9c6d41e410, 2022-07-14)"
   inkscape:export-filename="builer.png"
   inkscape:export-xdpi="96"
   inkscape:export-ydpi="96"
   xmlns:inkscape="http://www.inkscape.org/namespaces/inkscape"
   xmlns:sodipodi="http://sodipodi.sourceforge.net/DTD/sodipodi-0.dtd"
   xmlns:xlink="http://www.w3.org/1999/xlink"
   xmlns="http://www.w3.org/2000/svg"
   xmlns:svg="http://www.w3.org/2000/svg">
  <sodipodi:namedview
     id="namedview3035"
     pagecolor="#ffffff"
     bordercolor="#666666"
     borderopacity="1.0"
     inkscape:showpageshadow="2"
     inkscape:pageopacity="0.0"
     inkscape:pagecheckerboard="0"
     inkscape:deskcolor="#d1d1d1"
     showgrid="false"
     inkscape:zoom="1.2539062"
     inkscape:cx="67.389411"
     inkscape:cy="384.79752"
     inkscape:window-width="1066"
     inkscape:window-height="528"
     inkscape:window-x="199"
     inkscape:window-y="58"
     inkscape:window-maximized="0"
     inkscape:current-layer="svg3033" />
  <defs
     id="defs3002">
    <linearGradient
       id="linear_0"
       x1="96.37%"
       y1="96.011%"
       x2="2.8400000000000003%"
       y2="0%"
       gradientUnits="objectBoundingBox">
      <stop
         offset="0"
         stop-color="#00BAAD"
         stop-opacity="1"
         id="stop2926" />
      <stop
         offset="1"
         stop-color="#43CF7C"
         stop-opacity="1"
         id="stop2928" />
    </linearGradient>
    <filter
       id="filter_2"
       x="60.5"
       y="54"
       width="387"
       height="204"
       filterUnits="userSpaceOnUse"
       color-interpolation-filters="sRGB">
      <feFlood
         flood-opacity="0"
         result="BackgroundImageFix"
         id="feFlood2931" />
      <feColorMatrix
         in="SourceAlpha"
         type="matrix"
         values="0 0 0 0 0 0 0 0 0 0 0 0 0 0 0 0 0 0 127 0"
         id="feColorMatrix2933" />
      <feOffset
         dx="0"
         dy="0"
         id="feOffset2935" />
      <feGaussianBlur
         stdDeviation="1"
         id="feGaussianBlur2937" />
      <feColorMatrix
         type="matrix"
         values="0 0 0 0 0 0 0 0 0 0 0 0 0 0 0 0 0 0 0.5 0"
         id="feColorMatrix2939" />
      <feBlend
         mode="normal"
         in2="BackgroundImageFix"
         result="effect1_Shadow"
         id="feBlend2941" />
      <feBlend
         mode="normal"
         in="SourceGraphic"
         in2="effect1_Shadow"
         result="shape"
         id="feBlend2943" />
    </filter>
    <linearGradient
       id="linear_1"
       x1="50%"
       y1="100%"
       x2="51%"
       y2="0%"
       gradientUnits="objectBoundingBox">
      <stop
         offset="0"
         stop-color="#ACCBEE"
         stop-opacity="1"
         id="stop2946" />
      <stop
         offset="1"
         stop-color="#E7F0FD"
         stop-opacity="1"
         id="stop2948" />
    </linearGradient>
    <filter
       id="filter_4"
       x="52"
       y="254"
       width="404"
       height="204"
       filterUnits="userSpaceOnUse"
       color-interpolation-filters="sRGB">
      <feFlood
         flood-opacity="0"
         result="BackgroundImageFix"
         id="feFlood2951" />
      <feColorMatrix
         in="SourceAlpha"
         type="matrix"
         values="0 0 0 0 0 0 0 0 0 0 0 0 0 0 0 0 0 0 127 0"
         id="feColorMatrix2953" />
      <feOffset
         dx="0"
         dy="0"
         id="feOffset2955" />
      <feGaussianBlur
         stdDeviation="1"
         id="feGaussianBlur2957" />
      <feColorMatrix
         type="matrix"
         values="0 0 0 0 0 0 0 0 0 0 0 0 0 0 0 0 0 0 0.5 0"
         id="feColorMatrix2959" />
      <feBlend
         mode="normal"
         in2="BackgroundImageFix"
         result="effect1_Shadow"
         id="feBlend2961" />
      <feBlend
         mode="normal"
         in="SourceGraphic"
         in2="effect1_Shadow"
         result="shape"
         id="feBlend2963" />
    </filter>
    <filter
       id="filter_12"
       x="-7"
       y="-7"
       width="276"
       height="156"
       filterUnits="userSpaceOnUse"
       color-interpolation-filters="sRGB">
      <feFlood
         flood-opacity="0"
         result="BackgroundImageFix"
         id="feFlood2966" />
      <feColorMatrix
         in="SourceAlpha"
         type="matrix"
         values="0 0 0 0 0 0 0 0 0 0 0 0 0 0 0 0 0 0 127 0"
         id="feColorMatrix2968" />
      <feOffset
         dx="0"
         dy="-2"
         id="feOffset2970" />
      <feGaussianBlur
         stdDeviation="3.5"
         id="feGaussianBlur2972" />
      <feColorMatrix
         type="matrix"
         values="0 0 0 0 0 0 0 0 0 0 0 0 0 0 0 0 0 0 0.5 0"
         id="feColorMatrix2974" />
      <feBlend
         mode="normal"
         in2="BackgroundImageFix"
         result="effect1_Shadow"
         id="feBlend2976" />
      <feBlend
         mode="normal"
         in="SourceGraphic"
         in2="effect1_Shadow"
         result="shape"
         id="feBlend2978" />
    </filter>
    <linearGradient
       id="linear_2"
       x1="50%"
       y1="100%"
       x2="51%"
       y2="0%"
       gradientUnits="objectBoundingBox">
      <stop
         offset="0"
         stop-color="#F5F9FF"
         stop-opacity="1"
         id="stop2981" />
      <stop
         offset="1"
         stop-color="#E7F0FD"
         stop-opacity="1"
         id="stop2983" />
    </linearGradient>
    <filter
       id="filter_14"
       x="-6"
       y="220"
       width="521"
       height="79"
       filterUnits="userSpaceOnUse"
       color-interpolation-filters="sRGB">
      <feFlood
         flood-opacity="0"
         result="BackgroundImageFix"
         id="feFlood2986" />
      <feColorMatrix
         in="SourceAlpha"
         type="matrix"
         values="0 0 0 0 0 0 0 0 0 0 0 0 0 0 0 0 0 0 127 0"
         id="feColorMatrix2988" />
      <feOffset
         dx="0"
         dy="0"
         id="feOffset2990" />
      <feGaussianBlur
         stdDeviation="2"
         id="feGaussianBlur2992" />
      <feColorMatrix
         type="matrix"
         values="0 0 0 0 0 0 0 0 0 0 0 0 0 0 0 0 0 0 0.5 0"
         id="feColorMatrix2994" />
      <feBlend
         mode="normal"
         in2="BackgroundImageFix"
         result="effect1_Shadow"
         id="feBlend2996" />
      <feBlend
         mode="normal"
         in="SourceGraphic"
         in2="effect1_Shadow"
         result="shape"
         id="feBlend2998" />
    </filter>
    <rect
       id="path_0"
       x="0"
       y="0"
       width="101.975103875"
       height="128" />
  </defs>
  <g
     opacity="1"
     transform="translate(2 0)  rotate(0 256 256)"
     id="g3031">
    <g
       id="g3005"
       filter="url(#filter_2)">
      <path
         id="矩形 1"
         fill-rule="evenodd"
         fill="url(#linear_0)"
         transform="translate(62.5 56)  rotate(0 191.5 100)"
         opacity="1"
         d="M0,200L383,200L383,18.000000000000004C383,13.226103182888199 381.10357687342247,8.647732750706759 377.72792206135784,5.272077938642134C374.3522672492932,1.8964231265775098 369.7738968171118,-1.0658141036401503e-14 365,-7.105427357601002e-15L18.000000000000004,0C13.226103182888211,-3.552713678800501e-15 8.647732750706767,1.8964231265775169 5.272077938642141,5.272077938642143C1.8964231265775169,8.64773275070677 -3.552713678800501e-15,13.226103182888213 -3.552713678800501e-15,18.000000000000007L0,200Z " />
    </g>
    <g
       id="g3008"
       filter="url(#filter_4)">
      <path
         id="矩形 2"
         fill-rule="evenodd"
         fill="url(#linear_1)"
         transform="translate(54 256)  rotate(0 200 100)"
         opacity="1"
         d="M1.1021821192326181e-15,182C0,186.7738968171118 1.8964231265775169,191.35226724929322 5.272077938642141,194.72792206135784C8.647732750706766,198.10357687342247 13.226103182888204,200 17.999999999999996,200L382,200C391.94112549695427,200 400,191.94112549695427 400,182L400,0L0,0Z " />
    </g>
    <g
       opacity="1"
       transform="translate(125 82)  rotate(0 131 71)"
       id="g3013">
      <g
         id="g3011"
         filter="url(#filter_12)">
        <path
           id="形状"
           fill-rule="evenodd"
           style="fill:#FFFFFF"
           transform="translate(0 0)  rotate(0 131 71)"
           opacity="1"
           d="M218.17529,3.05216c0.30871,1.07545 0.17678,2.23009 -0.36413,3.20765l-15.89229,28.66011l-5.07931,9.08019c1.53303,0.83359 3.06078,1.68301 4.58061,2.54971c1.51983,0.8667 3.01856,1.76075 4.49881,2.68072c26.4203,16.46009 46.00135,41.4792 54.22059,70.7699c2.26656,7.79598 3.51462,15.85254 3.72043,23.96957h-263.86c0.20318,-8.12711 1.45123,-16.19375 3.72043,-23.9998c8.20077,-29.26046 27.80029,-54.27957 54.19948,-70.73966c1.47234,-0.95452 2.96578,-1.86009 4.48034,-2.72103c1.51192,-0.8595 3.04758,-1.69597 4.59908,-2.5094l-5.0793,-9.08019l-15.81049,-28.60972c-1.06072,-2.02997 -0.30872,-4.53649 1.69398,-5.64794c2.00269,-1.11 4.52783,-0.41895 5.68618,1.55776l16.10074,28.99988l5.07931,9.15073c1.59899,-0.6709 3.21909,-1.34036 4.8603,-2.00118c1.63329,-0.64642 3.28241,-1.26549 4.95001,-1.86009c30.74232,-10.81791 64.25782,-10.81791 95.00015,0c1.67023,0.59027 3.3088,1.24102 4.95001,1.86009c1.63857,0.62051 3.25867,1.28997 4.8603,2.00118l5.07931,-9.15073l16.10074,-29.05027c0.74144,-1.34036 2.15573,-2.17251 3.68876,-2.16963c0.70187,0.00432 1.39054,0.18716 2.00006,0.52981c0.98156,0.53988 1.70454,1.44833 2.01589,2.52235z M83.92,92.00001c0,-6.62736 -5.37264,-12 -12,-12c-6.62736,0 -12,5.37264 -12,12c0,6.62736 5.37264,12 12,12c6.62736,0 12,-5.37264 12,-12z M203.92,92.00001c0,-6.62736 -5.37264,-12 -12,-12c-6.62736,0 -12,5.37264 -12,12c0,6.62736 5.37264,12 12,12c6.62736,0 12,-5.37264 12,-12z " />
      </g>
    </g>
    <g
       id="g3016"
       filter="url(#filter_14)">
      <path
         id="矩形 3"
         fill-rule="evenodd"
         fill="url(#linear_2)"
         transform="translate(-2 224)  rotate(0 256.5 35.5)"
         opacity="1"
         d="M10.232250952256361,58.04214068005196C8.332096543530504,60.4484473304004 7.974403633993694,63.72909499409552 9.31135108229396,66.48834670298234C10.648298530594225,69.24759841186918 13.444667959828811,71 16.510756424389392,71L496.4892435756106,71C499.5553320401712,71.00000000000001 502.3517014694058,69.24759841186919 503.6886489177061,66.48834670298237C505.02559636600637,63.72909499409554 504.66790345646956,60.448447330400406 502.7677490477437,58.04214068005195L459.3366707748275,3.042140680051967C457.81952964784824,1.1208721943948827 455.50622367478263,2.6645352591003757e-15 453.0581653026945,-8.881784197001252e-16L59.941834697305566,0C57.4937763252174,-1.7763568394002505e-15 55.180470352151815,1.1208721943948738 53.663329225172546,3.042140680051956Z " />
    </g>
    <path
       id="文本 1"
       fill-rule="evenodd"
       style="fill:#707070"
       transform="translate(73.66015625 302.90625)  rotate(0 34.046875 10.546875)"
       opacity="0.8"
       d="M0 0L0.59 0L0.59 21.09L0 21.09L0 0ZM1.76 0L1.76 21.09L4.1 21.09L4.1 0L1.76 0ZM5.03 0L5.03 21.09L4.45 21.09L4.45 0L5.03 0ZM5.27 0L5.27 21.09L5.86 21.09L5.86 0L5.27 0ZM7.96 0L6.79 0L6.79 21.09L7.96 21.09L7.96 0ZM8.54 21.09L8.54 0L8.89 0L8.89 21.09L8.54 21.09ZM9.13 21.09L10.06 21.09L10.06 0L9.13 0L9.13 21.09ZM12.41 0L12.41 21.09L12.99 21.09L12.99 0L12.41 0ZM13.34 0L13.34 21.09L13.58 21.09L13.58 0L13.34 0ZM14.16 21.09L13.92 21.09L13.92 0L14.16 0L14.16 21.09ZM16.27 0L16.27 21.09L15.09 21.09L15.09 0L16.27 0ZM16.85 0L16.85 21.09L17.44 21.09L17.44 0L16.85 0ZM18.37 0L18.37 21.09L17.78 21.09L17.78 0L18.37 0ZM20.71 21.09L20.71 0L21.88 0L21.88 21.09L20.71 21.09ZM22.47 21.09L22.47 0L22.23 0L22.23 21.09L22.47 21.09ZM23.4 21.09L23.4 0L23.05 0L23.05 21.09L23.4 21.09ZM25.74 21.09L25.74 0L26.33 0L26.33 21.09L25.74 21.09ZM26.67 21.09L26.67 0L26.91 0L26.91 21.09L26.67 21.09ZM27.26 21.09L27.26 0L27.5 0L27.5 21.09L27.26 21.09ZM27.84 0L27.84 21.09L29.02 21.09L29.02 0L27.84 0ZM30.77 21.09L30.77 0L30.19 0L30.19 21.09L30.77 21.09ZM31.12 0L32.88 0L32.88 21.09L31.12 21.09L31.12 0ZM33.46 21.09L35.22 21.09L35.22 0L33.46 0L33.46 21.09ZM35.8 0L35.56 0L35.56 21.09L35.8 21.09L35.8 0ZM36.15 0L36.15 21.09L36.98 21.09L36.98 0L36.15 0ZM37.91 0L37.91 21.09L37.32 21.09L37.32 0L37.91 0ZM38.49 21.09L39.66 21.09L39.66 0L38.49 0L38.49 21.09ZM40.01 21.09L40.59 21.09L40.59 0L40.01 0L40.01 21.09ZM42.94 21.09L42.94 0L43.52 0L43.52 21.09L42.94 21.09ZM44.11 21.09L44.45 21.09L44.45 0L44.11 0L44.11 21.09ZM45.28 0L45.28 21.09L45.63 21.09L45.63 0L45.28 0ZM48.55 0L48.55 21.09L47.97 21.09L47.97 0L48.55 0ZM48.9 21.09L49.48 21.09L49.48 0L48.9 0L48.9 21.09ZM49.73 21.09L50.31 21.09L50.31 0L49.73 0L49.73 21.09ZM51.24 21.09L50.66 21.09L50.66 0L51.24 0L51.24 21.09ZM51.83 0L51.83 21.09L53 21.09L53 0L51.83 0ZM53.34 0L53.93 0L53.93 21.09L53.34 21.09L53.34 0ZM56.27 0L55.1 0L55.1 21.09L56.27 21.09L56.27 0ZM56.86 21.09L56.86 0L57.45 0L57.45 21.09L56.86 21.09ZM58.37 0L57.79 0L57.79 21.09L58.37 21.09L58.37 0ZM60.13 0L60.13 21.09L58.96 21.09L58.96 0L60.13 0ZM61.3 21.09L61.89 21.09L61.89 0L61.3 0L61.3 21.09ZM62.23 0L62.23 21.09L62.82 21.09L62.82 0L62.23 0ZM63.99 0L64.58 0L64.58 21.09L63.99 21.09L63.99 0ZM65.75 21.09L65.75 0L68.09 0L68.09 21.09L65.75 21.09Z" />
    <path
       id="path3019"
       style="stroke:#FFFFFF; stroke-width:0.1; stroke-opacity:1; stroke-dasharray:0 0"
       transform="translate(73.66015625 302.90625)  rotate(0 34.046875 10.546875)"
       d="M44.11,21.09L45.28,21.09L45.28,0L44.11,0L44.11,21.09Z M40.01,21.09L40.59,21.09L40.59,0L40.01,0L40.01,21.09Z M42.94,0L42.94,21.09L43.52,21.09L43.52,0L42.94,0Z M48.9,21.09L49.48,21.09L49.48,0L48.9,0L48.9,21.09Z M50.66,21.09L51.24,21.09L51.24,0L50.66,0L50.66,21.09Z M51.83,0L51.83,21.09L53,21.09L53,0L51.83,0Z M37.91,21.09L37.91,0L37.32,0L37.32,21.09L37.91,21.09Z M38.49,21.09L39.66,21.09L39.66,0L38.49,0L38.49,21.09Z M36.15,21.09L36.15,0L35.56,0L35.56,21.09L36.15,21.09Z M12.41,0L12.41,21.09L12.99,21.09L12.99,0L12.41,0Z M10.06,21.09L10.06,0L8.89,0L8.89,21.09L10.06,21.09Z M14.16,0L13.58,0L13.58,21.09L14.16,21.09L14.16,0Z M56.86,0L56.86,21.09L57.45,21.09L57.45,0L56.86,0Z M56.27,0L55.1,0L55.1,21.09L56.27,21.09L56.27,0Z M53.93,0L53.34,0L53.34,21.09L53.93,21.09L53.93,0Z M13.34,0L13.34,21.09L13.92,21.09L13.92,0L13.34,0Z M16.27,21.09L16.27,0L15.09,0L15.09,21.09L16.27,21.09Z M16.85,0L16.85,21.09L17.44,21.09L17.44,0L16.85,0Z M36.98,21.09L36.98,0L35.8,0L35.8,21.09L36.98,21.09Z M33.46,21.09L35.22,21.09L35.22,0L33.46,0L33.46,21.09Z M32.88,0L31.12,0L31.12,21.09L32.88,21.09L32.88,0Z M30.77,21.09L30.77,0L30.19,0L30.19,21.09L30.77,21.09Z M26.67,0L26.67,21.09L27.26,21.09L27.26,0L26.67,0Z M27.84,0L27.84,21.09L29.02,21.09L29.02,0L27.84,0Z M65.75,0L65.75,21.09L68.09,21.09L68.09,0L65.75,0Z M62.23,0L62.23,21.09L62.82,21.09L62.82,0L62.23,0Z M64.58,0L63.99,0L63.99,21.09L64.58,21.09L64.58,0Z M27.5,0L26.91,0L26.91,21.09L27.5,21.09L27.5,0Z M25.74,0L25.74,21.09L26.33,21.09L26.33,0L25.74,0Z M23.4,21.09L23.4,0L22.23,0L22.23,21.09L23.4,21.09Z M48.55,21.09L48.55,0L47.97,0L47.97,21.09L48.55,21.09Z M49.73,21.09L50.31,21.09L50.31,0L49.73,0L49.73,21.09Z M44.45,21.09L45.63,21.09L45.63,0L44.45,0L44.45,21.09Z M61.3,21.09L61.89,21.09L61.89,0L61.3,0L61.3,21.09Z M60.13,21.09L60.13,0L58.96,0L58.96,21.09L60.13,21.09Z M58.37,0L57.79,0L57.79,21.09L58.37,21.09L58.37,0Z M5.03,21.09L5.03,0L4.45,0L4.45,21.09L5.03,21.09Z M7.96,0L6.79,0L6.79,21.09L7.96,21.09L7.96,0Z M8.54,0L8.54,21.09L9.13,21.09L9.13,0L8.54,0Z M5.27,0L5.27,21.09L5.86,21.09L5.86,0L5.27,0Z M0.59,0L0,0L0,21.09L0.59,21.09L0.59,0Z M1.76,0L1.76,21.09L4.1,21.09L4.1,0L1.76,0Z M18.37,21.09L18.37,0L17.78,0L17.78,21.09L18.37,21.09Z M22.47,21.09L23.05,21.09L23.05,0L22.47,0L22.47,21.09Z M20.71,0L20.71,21.09L21.88,21.09L21.88,0L20.71,0Z " />
    <g
       opacity="1"
       transform="translate(202.48132775 311.999999875)  rotate(0 50.9875519375 64)"
       id="g3029">
      <mask
         id="bg-mask"
         fill="white">
        <use
           xlink:href="#path_0"
           id="use3021" />
      </mask>
      <g
         mask="url(#bg-mask)"
         id="g3027">
        <path
           id="路径 1"
           fill-rule="evenodd"
           style="fill:#707070"
           transform="translate(0 0)  rotate(0 50.9875519375 64)"
           opacity="1"
           d="M6.28,30.72C6.22,30.69 6.22,30.67 6.28,30.72Z M48.86,11.68C49.93,12.22 46.74,12.22 46.21,13.28C51.52,10.62 63.2,11.15 70.64,14.87C79.14,19.12 89.23,30.8 89.76,42.49L90.29,42.49C90.29,46.74 90.82,52.05 89.23,56.83L90.82,54.71C90.82,57.89 89.76,60.02 88.7,62.67L86.57,63.73C84.98,66.92 86.57,65.33 85.51,67.98C83.39,70.11 78.61,74.36 77.01,74.89C75.95,74.89 77.54,73.83 78.07,73.29C74.89,75.42 75.42,76.48 70.64,78.07L70.64,77.54C58.95,83.39 42.49,72.23 42.49,56.83C42.49,57.89 41.96,57.36 41.96,57.89C41.43,49.93 45.68,42.49 52.58,39.3C59.49,35.59 67.45,36.65 72.76,41.43C70.11,37.71 64.8,33.99 58.42,34.52C52.05,34.52 46.21,38.77 44.08,43.02C40.9,45.15 40.37,50.99 38.77,52.05C36.65,65.86 42.49,71.7 51.52,79.14C51.9,79.39 52.13,79.59 52.26,79.75C62.83,83.9 74.42,82.81 83.39,75.42C86.04,73.29 88.17,70.64 89.23,70.11C88.17,71.7 89.23,71.17 88.7,72.23C90.82,68.51 87.63,70.64 91.35,65.33L92.41,66.92C91.88,63.73 96.13,60.02 96.13,54.71C96.53,54.1 96.78,54.18 96.88,54.72C96.78,53.95 96.66,53.12 96.66,52.05C97.07,52.86 97.47,53.67 97.64,54.48C97.59,52.08 99.37,49.72 99.85,47.8C99.32,47.8 98.26,49.39 98.26,45.15C98.26,43.02 98.79,44.08 98.79,43.55C98.26,43.55 97.2,41.96 96.66,38.77C97.2,38.24 97.73,40.37 98.26,40.37C97.73,38.24 97.2,36.12 97.2,34.52C95.6,30.8 96.66,35.05 95.07,32.93C92.95,27.09 96.66,31.34 96.66,28.68C99.32,32.93 100.91,39.3 101.98,41.96C101.44,38.77 100.38,35.59 99.32,32.4C100.38,32.93 97.73,26.02 100.38,30.27C97.73,20.18 88.7,11.15 80.73,6.9C82.32,8.5 83.39,9.56 83.39,10.09C79.14,7.44 80.2,7.44 79.67,6.37C76.48,4.78 75.95,6.37 73.83,6.37C67.45,3.19 66.39,3.19 60.55,1.59L60.55,2.66C56.3,1.06 55.77,3.19 51.52,2.66C50.99,2.66 53.11,2.12 54.17,1.59C50.46,2.12 50.46,1.06 46.74,1.59C47.8,1.06 48.86,0.53 49.93,0C46.74,0 41.96,2.12 43.55,0.53C38.24,2.66 28.68,6.37 23.9,11.15L23.9,10.09C21.24,12.75 13.28,18.59 12.75,22.31L12.22,22.31C10.09,24.43 9.56,27.09 8.5,29.21C7.36,31.11 6.49,30.84 6.28,30.72C6.31,30.74 6.34,30.77 6.37,30.8C3.19,37.18 1.59,42.49 0,47.27C1.06,48.86 0,56.3 0.53,62.14C-1.06,91.35 21.24,120.03 45.15,126.41C48.86,127.47 54.17,127.47 58.42,128C53.11,126.41 52.58,126.94 47.27,125.34C43.55,123.75 42.49,121.63 39.83,119.5L40.9,121.1C35.59,119.5 37.71,118.97 33.46,117.38L34.52,115.78C32.93,115.78 30.27,113.13 29.21,111.54L27.62,111.54C26.02,108.88 24.96,106.76 24.96,105.16L24.43,106.22C23.9,105.16 16.46,96.13 20.18,98.26C19.65,97.73 18.59,97.2 17.53,95.07L18.06,94.01C16.46,91.88 14.87,88.7 14.87,87.63C15.93,89.23 16.46,89.23 17,89.23C12.22,77.54 12.22,88.7 8.5,77.54L9.03,77.54C8.5,76.48 7.97,75.95 7.44,74.89L7.97,71.7C4.78,67.98 6.9,55.24 7.44,48.33C7.97,45.68 10.09,42.49 12.22,37.71L11.15,37.71C13.28,33.99 23.9,22.31 28.68,22.84C30.8,20.18 28.15,22.84 27.62,22.31C32.93,17 34.52,18.59 37.71,17.53C41.43,15.4 34.52,18.59 36.12,16.46C42.49,14.87 40.9,12.75 48.86,11.68Z M44.08,74.89C45.15,76.48 46.74,78.61 48.33,79.67C45.68,78.61 41.43,72.76 40.37,72.23C45.15,81.26 60.55,87.63 68.51,84.45C64.8,84.45 60.02,84.45 55.77,82.85C54.65,82.11 53.01,81.1 52.31,80.38C52.21,80.6 52.05,80.85 52.05,81.26C48.86,79.67 46.21,77.54 44.08,74.89Z M97.64,54.48C97.65,54.73 97.68,54.98 97.73,55.24C97.73,54.98 97.7,54.73 97.64,54.48Z M52.05,79.67C51.89,79.83 52.02,80.08 52.31,80.38C52.41,80.18 52.46,80 52.26,79.75C52.19,79.72 52.12,79.7 52.05,79.67Z M96.92,54.99C96.91,54.89 96.9,54.8 96.88,54.72C96.89,54.81 96.91,54.9 96.92,54.99Z M96.13,60.02C97.13,57.69 97.09,56.41 96.92,54.99C96.99,55.99 96.73,57.92 96.13,60.02Z " />
        <path
           id="path3025"
           style="stroke:#FFFFFF; stroke-width:0.5; stroke-opacity:1; stroke-dasharray:0 0"
           transform="translate(0 0)  rotate(0 50.9875519375 64)"
           d="M6.28,30.72C6.22,30.69 6.22,30.67 6.28,30.72Z M48.86,11.68C49.93,12.22 46.74,12.22 46.21,13.28C51.52,10.62 63.2,11.15 70.64,14.87C79.14,19.12 89.23,30.8 89.76,42.49L90.29,42.49C90.29,46.74 90.82,52.05 89.23,56.83L90.82,54.71C90.82,57.89 89.76,60.02 88.7,62.67L86.57,63.73C84.98,66.92 86.57,65.33 85.51,67.98C83.39,70.11 78.61,74.36 77.01,74.89C75.95,74.89 77.54,73.83 78.07,73.29C74.89,75.42 75.42,76.48 70.64,78.07L70.64,77.54C58.95,83.39 42.49,72.23 42.49,56.83C42.49,57.89 41.96,57.36 41.96,57.89C41.43,49.93 45.68,42.49 52.58,39.3C59.49,35.59 67.45,36.65 72.76,41.43C70.11,37.71 64.8,33.99 58.42,34.52C52.05,34.52 46.21,38.77 44.08,43.02C40.9,45.15 40.37,50.99 38.77,52.05C36.65,65.86 42.49,71.7 51.52,79.14C51.9,79.39 52.13,79.59 52.26,79.75C62.83,83.9 74.42,82.81 83.39,75.42C86.04,73.29 88.17,70.64 89.23,70.11C88.17,71.7 89.23,71.17 88.7,72.23C90.82,68.51 87.63,70.64 91.35,65.33L92.41,66.92C91.88,63.73 96.13,60.02 96.13,54.71C96.53,54.1 96.78,54.18 96.88,54.72C96.78,53.95 96.66,53.12 96.66,52.05C97.07,52.86 97.47,53.67 97.64,54.48C97.59,52.08 99.37,49.72 99.85,47.8C99.32,47.8 98.26,49.39 98.26,45.15C98.26,43.02 98.79,44.08 98.79,43.55C98.26,43.55 97.2,41.96 96.66,38.77C97.2,38.24 97.73,40.37 98.26,40.37C97.73,38.24 97.2,36.12 97.2,34.52C95.6,30.8 96.66,35.05 95.07,32.93C92.95,27.09 96.66,31.34 96.66,28.68C99.32,32.93 100.91,39.3 101.98,41.96C101.44,38.77 100.38,35.59 99.32,32.4C100.38,32.93 97.73,26.02 100.38,30.27C97.73,20.18 88.7,11.15 80.73,6.9C82.32,8.5 83.39,9.56 83.39,10.09C79.14,7.44 80.2,7.44 79.67,6.37C76.48,4.78 75.95,6.37 73.83,6.37C67.45,3.19 66.39,3.19 60.55,1.59L60.55,2.66C56.3,1.06 55.77,3.19 51.52,2.66C50.99,2.66 53.11,2.12 54.17,1.59C50.46,2.12 50.46,1.06 46.74,1.59C47.8,1.06 48.86,0.53 49.93,0C46.74,0 41.96,2.12 43.55,0.53C38.24,2.66 28.68,6.37 23.9,11.15L23.9,10.09C21.24,12.75 13.28,18.59 12.75,22.31L12.22,22.31C10.09,24.43 9.56,27.09 8.5,29.21C7.36,31.11 6.49,30.84 6.28,30.72C6.31,30.74 6.34,30.77 6.37,30.8C3.19,37.18 1.59,42.49 0,47.27C1.06,48.86 0,56.3 0.53,62.14C-1.06,91.35 21.24,120.03 45.15,126.41C48.86,127.47 54.17,127.47 58.42,128C53.11,126.41 52.58,126.94 47.27,125.34C43.55,123.75 42.49,121.63 39.83,119.5L40.9,121.1C35.59,119.5 37.71,118.97 33.46,117.38L34.52,115.78C32.93,115.78 30.27,113.13 29.21,111.54L27.62,111.54C26.02,108.88 24.96,106.76 24.96,105.16L24.43,106.22C23.9,105.16 16.46,96.13 20.18,98.26C19.65,97.73 18.59,97.2 17.53,95.07L18.06,94.01C16.46,91.88 14.87,88.7 14.87,87.63C15.93,89.23 16.46,89.23 17,89.23C12.22,77.54 12.22,88.7 8.5,77.54L9.03,77.54C8.5,76.48 7.97,75.95 7.44,74.89L7.97,71.7C4.78,67.98 6.9,55.24 7.44,48.33C7.97,45.68 10.09,42.49 12.22,37.71L11.15,37.71C13.28,33.99 23.9,22.31 28.68,22.84C30.8,20.18 28.15,22.84 27.62,22.31C32.93,17 34.52,18.59 37.71,17.53C41.43,15.4 34.52,18.59 36.12,16.46C42.49,14.87 40.9,12.75 48.86,11.68Z M44.08,74.89C45.15,76.48 46.74,78.61 48.33,79.67C45.68,78.61 41.43,72.76 40.37,72.23C45.15,81.26 60.55,87.63 68.51,84.45C64.8,84.45 60.02,84.45 55.77,82.85C54.65,82.11 53.01,81.1 52.31,80.38C52.21,80.6 52.05,80.85 52.05,81.26C48.86,79.67 46.21,77.54 44.08,74.89Z M97.64,54.48C97.65,54.73 97.68,54.98 97.73,55.24C97.73,54.98 97.7,54.73 97.64,54.48Z M52.05,79.67C51.89,79.83 52.02,80.08 52.31,80.38C52.41,80.18 52.46,80 52.26,79.75C52.19,79.72 52.12,79.7 52.05,79.67Z M96.92,54.99C96.91,54.89 96.9,54.8 96.88,54.72C96.89,54.81 96.91,54.9 96.92,54.99Z M96.13,60.02C97.13,57.69 97.09,56.41 96.92,54.99C96.99,55.99 96.73,57.92 96.13,60.02Z " />
      </g>
    </g>
  </g>
  <g
     id="g512"
     transform="matrix(0.11939116,0,0,0.11939116,366.71998,369.95995)">
    <path
       style="fill:#39cf8d;stroke-width:1.33333"
       d="m 290.00001,360.4718 c -2.2,-0.26687 -12.7,-1.41391 -23.33333,-2.54896 -10.63334,-1.13505 -33.73334,-4.37525 -51.33334,-7.20044 C 160.44887,341.91225 83.080403,329.76896 57.333335,325.92368 43.766668,323.8975 32.29695,321.68029 31.845073,320.99652 c -1.050461,-1.58954 1.74408,-16.26335 6.24139,-32.7728 16.189004,-59.42926 52.934956,-116.77743 99.863717,-155.85397 6.62741,-5.51849 12.57163,-11.33408 13.2094,-12.92353 0.99096,-2.4697 -3.13185,-8.57946 -28.3543,-42.019436 C 106.57266,55.905542 92.928855,36.852659 92.485714,35.087045 90.974922,29.067572 92.748553,17.685115 95.918078,13.059496 103.24885,2.3609403 115.34434,-2.1403014 125.91462,1.8965242 c 7.77409,2.9689508 11.18286,6.8848654 44.48533,51.1034778 15.60239,20.716667 28.86214,37.666668 29.46611,37.666668 0.60399,0 6.1312,-2.348432 12.28272,-5.218738 21.38577,-9.978643 50.81906,-18.953363 76.5179,-23.331641 60.32489,-10.277475 128.59333,-1.518586 181.85123,23.331641 6.15152,2.870306 11.67357,5.218738 12.27125,5.218738 0.59768,0 14.70619,-18.031625 31.35226,-40.070278 16.64606,-22.038652 32.63179,-42.0956788 35.52384,-44.571169 11.34832,-9.7137382 27.82332,-6.68984216 36.94831,6.781659 3.90425,5.763973 5.38829,19.540298 2.6551,24.647301 -0.92708,1.732273 -14.22172,19.842675 -29.54365,40.245337 -15.32192,20.402662 -28.17832,37.93037 -28.56976,38.95047 -1.1076,2.88635 0.6408,4.90396 13.51143,15.59182 39.49418,32.79628 72.51389,79.68434 91.37887,129.7582 8.06893,21.41763 16.75793,56.07713 14.77606,58.94017 -0.45188,0.65279 -11.9216,2.8668 -25.48827,4.92004 -60.18141,9.10812 -118.48747,18.27565 -124,19.49667 -7.95485,1.76199 -62.81891,10.08243 -84.66667,12.84018 -12.98493,1.63902 -30.54579,2.25966 -70,2.47393 -28.96667,0.15731 -54.46667,0.0676 -56.66667,-0.1992 z"
       id="path516" />
    <path
       style="fill:#f39602;stroke-width:1.33333"
       d="M 315.33334,681.84436 C 237.45709,673.7143 170.91849,642.84253 118.56516,590.55026 69.225276,541.2679 39.492023,480.57054 29.140977,408.00001 c -3.294044,-23.09433 -1.374611,-80.29969 2.835592,-84.50991 1.874016,-1.87401 42.920338,4.74754 45.520088,7.34326 1.193527,1.19168 21.530589,60.29168 45.193473,131.33334 23.66288,71.04166 44.22852,130.88657 45.70141,132.98869 2.85753,4.0783 11.67697,8.76704 16.58148,8.81535 9.17865,0.0904 11.47003,-2.14284 84.15696,-82.0221 39.01158,-42.87174 71.49291,-77.94862 72.18076,-77.94862 0.68785,0 33.21398,35.1037 72.28031,78.00825 60.15553,66.06572 71.89193,78.33754 76.66181,80.15918 10.07269,3.8468 20.70505,-0.27908 25.63177,-9.94638 1.37,-2.68825 20.94607,-60.68772 43.50238,-128.88772 34.55556,-104.48031 43.14677,-129.76595 45.44849,-133.76391 0.38376,-0.66658 39.38288,-6.85919 43.34242,-6.88228 4.39205,-0.0256 4.59566,0.83322 6.71058,28.30525 3.26696,42.43652 -3.94837,90.43279 -19.6035,130.40214 -41.70745,106.48387 -133.78945,180.00409 -248.00739,198.01431 -12.76436,2.01272 -60.51119,3.62907 -71.94427,2.4355 z M 210.12178,453.66668 c -2.17489,-7.00354 -24.63897,-97.78307 -25.24068,-102 -0.61067,-4.27976 -0.34704,-5 1.83011,-5 1.39894,0 15.61122,2.06505 31.58284,4.58901 30.77944,4.86402 61.79596,8.74003 69.9606,8.74271 2.70672,8.8e-4 5.20885,0.46687 5.56031,1.03552 0.35144,0.56864 -1.26315,3.57781 -3.58799,6.68703 -8.22456,10.99949 -76.2502,88.10904 -77.80378,88.19343 -0.86725,0.0471 -1.90289,-0.96436 -2.30141,-2.2477 z m 222.5449,-39.05708 c -38.12215,-43.69785 -44.84171,-51.91435 -43.81495,-53.57568 0.35146,-0.56865 2.85359,-1.03464 5.56031,-1.03552 8.16464,-0.003 39.18116,-3.87869 69.9606,-8.74271 15.97162,-2.52396 30.2488,-4.58901 31.7271,-4.58901 3.47654,0 3.60982,-0.72721 -9.65284,52.66667 -13.03546,52.47912 -14.23906,56.68247 -16.20816,56.60412 -0.86463,-0.0344 -17.77206,-18.63194 -37.57206,-41.32787 z"
       id="path514" />
  </g>
</svg>
