<?xml version="1.0" encoding="UTF-8" standalone="no"?>
<svg
   width="514"
   height="512"
   viewBox="0 0 514 512"
   fill="none"
   version="1.1"
   id="svg3563"
   sodipodi:docname="defult.svg"
   inkscape:version="1.2.1 (9c6d41e410, 2022-07-14)"
   inkscape:export-filename="defult.png"
   inkscape:export-xdpi="96"
   inkscape:export-ydpi="96"
   xmlns:inkscape="http://www.inkscape.org/namespaces/inkscape"
   xmlns:sodipodi="http://sodipodi.sourceforge.net/DTD/sodipodi-0.dtd"
   xmlns:xlink="http://www.w3.org/1999/xlink"
   xmlns="http://www.w3.org/2000/svg"
   xmlns:svg="http://www.w3.org/2000/svg">
  <sodipodi:namedview
     id="namedview3565"
     pagecolor="#ffffff"
     bordercolor="#666666"
     borderopacity="1.0"
     inkscape:showpageshadow="2"
     inkscape:pageopacity="0.0"
     inkscape:pagecheckerboard="0"
     inkscape:deskcolor="#d1d1d1"
     showgrid="false"
     inkscape:zoom="1.2539062"
     inkscape:cx="66.591903"
     inkscape:cy="257.19627"
     inkscape:window-width="1066"
     inkscape:window-height="528"
     inkscape:window-x="207"
     inkscape:window-y="74"
     inkscape:window-maximized="0"
     inkscape:current-layer="svg3563" />
  <defs
     id="defs3532">
    <linearGradient
       id="linear_0"
       x1="96.37%"
       y1="96.011%"
       x2="2.8400000000000003%"
       y2="0%"
       gradientUnits="objectBoundingBox">
      <stop
         offset="0"
         stop-color="#00BAAD"
         stop-opacity="1"
         id="stop3456" />
      <stop
         offset="1"
         stop-color="#43CF7C"
         stop-opacity="1"
         id="stop3458" />
    </linearGradient>
    <filter
       id="filter_2"
       x="60.5"
       y="54"
       width="387"
       height="204"
       filterUnits="userSpaceOnUse"
       color-interpolation-filters="sRGB">
      <feFlood
         flood-opacity="0"
         result="BackgroundImageFix"
         id="feFlood3461" />
      <feColorMatrix
         in="SourceAlpha"
         type="matrix"
         values="0 0 0 0 0 0 0 0 0 0 0 0 0 0 0 0 0 0 127 0"
         id="feColorMatrix3463" />
      <feOffset
         dx="0"
         dy="0"
         id="feOffset3465" />
      <feGaussianBlur
         stdDeviation="1"
         id="feGaussianBlur3467" />
      <feColorMatrix
         type="matrix"
         values="0 0 0 0 0 0 0 0 0 0 0 0 0 0 0 0 0 0 0.5 0"
         id="feColorMatrix3469" />
      <feBlend
         mode="normal"
         in2="BackgroundImageFix"
         result="effect1_Shadow"
         id="feBlend3471" />
      <feBlend
         mode="normal"
         in="SourceGraphic"
         in2="effect1_Shadow"
         result="shape"
         id="feBlend3473" />
    </filter>
    <linearGradient
       id="linear_1"
       x1="50%"
       y1="100%"
       x2="51%"
       y2="0%"
       gradientUnits="objectBoundingBox">
      <stop
         offset="0"
         stop-color="#ACCBEE"
         stop-opacity="1"
         id="stop3476" />
      <stop
         offset="1"
         stop-color="#E7F0FD"
         stop-opacity="1"
         id="stop3478" />
    </linearGradient>
    <filter
       id="filter_4"
       x="52"
       y="254"
       width="404"
       height="204"
       filterUnits="userSpaceOnUse"
       color-interpolation-filters="sRGB">
      <feFlood
         flood-opacity="0"
         result="BackgroundImageFix"
         id="feFlood3481" />
      <feColorMatrix
         in="SourceAlpha"
         type="matrix"
         values="0 0 0 0 0 0 0 0 0 0 0 0 0 0 0 0 0 0 127 0"
         id="feColorMatrix3483" />
      <feOffset
         dx="0"
         dy="0"
         id="feOffset3485" />
      <feGaussianBlur
         stdDeviation="1"
         id="feGaussianBlur3487" />
      <feColorMatrix
         type="matrix"
         values="0 0 0 0 0 0 0 0 0 0 0 0 0 0 0 0 0 0 0.5 0"
         id="feColorMatrix3489" />
      <feBlend
         mode="normal"
         in2="BackgroundImageFix"
         result="effect1_Shadow"
         id="feBlend3491" />
      <feBlend
         mode="normal"
         in="SourceGraphic"
         in2="effect1_Shadow"
         result="shape"
         id="feBlend3493" />
    </filter>
    <filter
       id="filter_12"
       x="-7"
       y="-7"
       width="276"
       height="156"
       filterUnits="userSpaceOnUse"
       color-interpolation-filters="sRGB">
      <feFlood
         flood-opacity="0"
         result="BackgroundImageFix"
         id="feFlood3496" />
      <feColorMatrix
         in="SourceAlpha"
         type="matrix"
         values="0 0 0 0 0 0 0 0 0 0 0 0 0 0 0 0 0 0 127 0"
         id="feColorMatrix3498" />
      <feOffset
         dx="0"
         dy="-2"
         id="feOffset3500" />
      <feGaussianBlur
         stdDeviation="3.5"
         id="feGaussianBlur3502" />
      <feColorMatrix
         type="matrix"
         values="0 0 0 0 0 0 0 0 0 0 0 0 0 0 0 0 0 0 0.5 0"
         id="feColorMatrix3504" />
      <feBlend
         mode="normal"
         in2="BackgroundImageFix"
         result="effect1_Shadow"
         id="feBlend3506" />
      <feBlend
         mode="normal"
         in="SourceGraphic"
         in2="effect1_Shadow"
         result="shape"
         id="feBlend3508" />
    </filter>
    <linearGradient
       id="linear_2"
       x1="50%"
       y1="100%"
       x2="51%"
       y2="0%"
       gradientUnits="objectBoundingBox">
      <stop
         offset="0"
         stop-color="#F5F9FF"
         stop-opacity="1"
         id="stop3511" />
      <stop
         offset="1"
         stop-color="#E7F0FD"
         stop-opacity="1"
         id="stop3513" />
    </linearGradient>
    <filter
       id="filter_14"
       x="-6"
       y="220"
       width="521"
       height="79"
       filterUnits="userSpaceOnUse"
       color-interpolation-filters="sRGB">
      <feFlood
         flood-opacity="0"
         result="BackgroundImageFix"
         id="feFlood3516" />
      <feColorMatrix
         in="SourceAlpha"
         type="matrix"
         values="0 0 0 0 0 0 0 0 0 0 0 0 0 0 0 0 0 0 127 0"
         id="feColorMatrix3518" />
      <feOffset
         dx="0"
         dy="0"
         id="feOffset3520" />
      <feGaussianBlur
         stdDeviation="2"
         id="feGaussianBlur3522" />
      <feColorMatrix
         type="matrix"
         values="0 0 0 0 0 0 0 0 0 0 0 0 0 0 0 0 0 0 0.5 0"
         id="feColorMatrix3524" />
      <feBlend
         mode="normal"
         in2="BackgroundImageFix"
         result="effect1_Shadow"
         id="feBlend3526" />
      <feBlend
         mode="normal"
         in="SourceGraphic"
         in2="effect1_Shadow"
         result="shape"
         id="feBlend3528" />
    </filter>
    <rect
       id="path_0"
       x="0"
       y="0"
       width="119.99219988153558"
       height="119.9950733704817" />
  </defs>
  <g
     opacity="1"
     transform="translate(2 0)  rotate(0 256 256)"
     id="g3561">
    <g
       id="g3535"
       filter="url(#filter_2)">
      <path
         id="矩形 1"
         fill-rule="evenodd"
         fill="url(#linear_0)"
         transform="translate(62.5 56)  rotate(0 191.5 100)"
         opacity="1"
         d="M0,200L383,200L383,18.000000000000004C383,13.226103182888199 381.10357687342247,8.647732750706759 377.72792206135784,5.272077938642134C374.3522672492932,1.8964231265775098 369.7738968171118,-1.0658141036401503e-14 365,-7.105427357601002e-15L18.000000000000004,0C13.226103182888211,-3.552713678800501e-15 8.647732750706767,1.8964231265775169 5.272077938642141,5.272077938642143C1.8964231265775169,8.64773275070677 -3.552713678800501e-15,13.226103182888213 -3.552713678800501e-15,18.000000000000007L0,200Z " />
    </g>
    <g
       id="g3538"
       filter="url(#filter_4)">
      <path
         id="矩形 2"
         fill-rule="evenodd"
         fill="url(#linear_1)"
         transform="translate(54 256)  rotate(0 200 100)"
         opacity="1"
         d="M1.1021821192326181e-15,182C0,186.7738968171118 1.8964231265775169,191.35226724929322 5.272077938642141,194.72792206135784C8.647732750706766,198.10357687342247 13.226103182888204,200 17.999999999999996,200L382,200C391.94112549695427,200 400,191.94112549695427 400,182L400,0L0,0Z " />
    </g>
    <g
       opacity="1"
       transform="translate(125 82)  rotate(0 131 71)"
       id="g3543">
      <g
         id="g3541"
         filter="url(#filter_12)">
        <path
           id="形状"
           fill-rule="evenodd"
           style="fill:#FFFFFF"
           transform="translate(0 0)  rotate(0 131 71)"
           opacity="1"
           d="M218.17529,3.05216c0.30871,1.07545 0.17678,2.23009 -0.36413,3.20765l-15.89229,28.66011l-5.07931,9.08019c1.53303,0.83359 3.06078,1.68301 4.58061,2.54971c1.51983,0.8667 3.01856,1.76075 4.49881,2.68072c26.4203,16.46009 46.00135,41.4792 54.22059,70.7699c2.26656,7.79598 3.51462,15.85254 3.72043,23.96957h-263.86c0.20318,-8.12711 1.45123,-16.19375 3.72043,-23.9998c8.20077,-29.26046 27.80029,-54.27957 54.19948,-70.73966c1.47234,-0.95452 2.96578,-1.86009 4.48034,-2.72103c1.51192,-0.8595 3.04758,-1.69597 4.59908,-2.5094l-5.0793,-9.08019l-15.81049,-28.60972c-1.06072,-2.02997 -0.30872,-4.53649 1.69398,-5.64794c2.00269,-1.11 4.52783,-0.41895 5.68618,1.55776l16.10074,28.99988l5.07931,9.15073c1.59899,-0.6709 3.21909,-1.34036 4.8603,-2.00118c1.63329,-0.64642 3.28241,-1.26549 4.95001,-1.86009c30.74232,-10.81791 64.25782,-10.81791 95.00015,0c1.67023,0.59027 3.3088,1.24102 4.95001,1.86009c1.63857,0.62051 3.25867,1.28997 4.8603,2.00118l5.07931,-9.15073l16.10074,-29.05027c0.74144,-1.34036 2.15573,-2.17251 3.68876,-2.16963c0.70187,0.00432 1.39054,0.18716 2.00006,0.52981c0.98156,0.53988 1.70454,1.44833 2.01589,2.52235z M83.92,92.00001c0,-6.62736 -5.37264,-12 -12,-12c-6.62736,0 -12,5.37264 -12,12c0,6.62736 5.37264,12 12,12c6.62736,0 12,-5.37264 12,-12z M203.92,92.00001c0,-6.62736 -5.37264,-12 -12,-12c-6.62736,0 -12,5.37264 -12,12c0,6.62736 5.37264,12 12,12c6.62736,0 12,-5.37264 12,-12z " />
      </g>
    </g>
    <g
       id="g3546"
       filter="url(#filter_14)">
      <path
         id="矩形 3"
         fill-rule="evenodd"
         fill="url(#linear_2)"
         transform="translate(-2 224)  rotate(0 256.5 35.5)"
         opacity="1"
         d="M10.232250952256361,58.04214068005196C8.332096543530504,60.4484473304004 7.974403633993694,63.72909499409552 9.31135108229396,66.48834670298234C10.648298530594225,69.24759841186918 13.444667959828811,71 16.510756424389392,71L496.4892435756106,71C499.5553320401712,71.00000000000001 502.3517014694058,69.24759841186919 503.6886489177061,66.48834670298237C505.02559636600637,63.72909499409554 504.66790345646956,60.448447330400406 502.7677490477437,58.04214068005195L459.3366707748275,3.042140680051967C457.81952964784824,1.1208721943948827 455.50622367478263,2.6645352591003757e-15 453.0581653026945,-8.881784197001252e-16L59.941834697305566,0C57.4937763252174,-1.7763568394002505e-15 55.180470352151815,1.1208721943948738 53.663329225172546,3.042140680051956Z " />
    </g>
    <path
       id="文本 1"
       fill-rule="evenodd"
       style="fill:#707070"
       transform="translate(78.10546875 302.90625)  rotate(0 29.6015625 10.546875)"
       opacity="0.8"
       d="M0 21.09L0 0L1.17 0L1.17 21.09L0 21.09ZM3.52 0L3.52 21.09L1.76 21.09L1.76 0L3.52 0ZM4.1 21.09L4.45 21.09L4.45 0L4.1 0L4.1 21.09ZM5.62 0L5.62 21.09L5.03 21.09L5.03 0L5.62 0ZM5.86 21.09L5.86 0L6.79 0L6.79 21.09L5.86 21.09ZM7.96 21.09L7.96 0L8.55 0L8.55 21.09L7.96 21.09ZM8.89 21.09L8.89 0L10.06 0L10.06 21.09L8.89 21.09ZM12.41 0L12.99 0L12.99 21.09L12.41 21.09L12.41 0ZM13.34 0L13.34 21.09L13.58 21.09L13.58 0L13.34 0ZM14.16 21.09L13.92 21.09L13.92 0L14.16 0L14.16 21.09ZM16.27 21.09L15.09 21.09L15.09 0L16.27 0L16.27 21.09ZM17.44 21.09L17.44 0L16.85 0L16.85 21.09L17.44 21.09ZM18.37 21.09L17.78 21.09L17.78 0L18.37 0L18.37 21.09ZM21.88 21.09L21.88 0L20.71 0L20.71 21.09L21.88 21.09ZM22.47 21.09L22.23 21.09L22.23 0L22.47 0L22.47 21.09ZM23.4 21.09L23.4 0L23.05 0L23.05 21.09L23.4 21.09ZM26.33 0L26.33 21.09L25.74 21.09L25.74 0L26.33 0ZM26.67 21.09L26.67 0L26.91 0L26.91 21.09L26.67 21.09ZM27.26 21.09L27.5 21.09L27.5 0L27.26 0L27.26 21.09ZM27.84 21.09L29.02 21.09L29.02 0L27.84 0L27.84 21.09ZM30.77 0L30.77 21.09L30.19 21.09L30.19 0L30.77 0ZM31.12 0L31.12 21.09L31.7 21.09L31.7 0L31.12 0ZM32.88 0L33.46 0L33.46 21.09L32.88 21.09L32.88 0ZM34.63 0L35.56 0L35.56 21.09L34.63 21.09L34.63 0ZM36.98 0L36.15 0L36.15 21.09L36.98 21.09L36.98 0ZM39.66 21.09L39.66 0L37.32 0L37.32 21.09L39.66 21.09ZM40.84 21.09L40.84 0L40.01 0L40.01 21.09L40.84 21.09ZM41.18 0L41.18 21.09L41.42 21.09L41.42 0L41.18 0ZM43.52 21.09L43.52 0L44.11 0L44.11 21.09L43.52 21.09ZM44.7 21.09L44.7 0L44.45 0L44.45 21.09L44.7 21.09ZM45.63 21.09L45.63 0L45.28 0L45.28 21.09L45.63 21.09ZM48.55 21.09L47.97 21.09L47.97 0L48.55 0L48.55 21.09ZM49.14 0L48.9 0L48.9 21.09L49.14 21.09L49.14 0ZM49.48 0L49.48 21.09L49.73 21.09L49.73 0L49.48 0ZM51.24 0L50.07 0L50.07 21.09L51.24 21.09L51.24 0ZM52.41 0L53 0L53 21.09L52.41 21.09L52.41 0ZM53.93 21.09L53.34 21.09L53.34 0L53.93 0L53.93 21.09ZM55.1 21.09L55.69 21.09L55.69 0L55.1 0L55.1 21.09ZM56.86 21.09L59.2 21.09L59.2 0L56.86 0L56.86 21.09Z" />
    <path
       id="path3549"
       style="stroke:#FFFFFF; stroke-width:0.1; stroke-opacity:1; stroke-dasharray:0 0"
       transform="translate(78.10546875 302.90625)  rotate(0 29.6015625 10.546875)"
       d="M26.91,0L26.91,21.09L27.5,21.09L27.5,0L26.91,0Z M23.4,21.09L23.4,0L22.23,0L22.23,21.09L23.4,21.09Z M26.33,21.09L26.33,0L25.74,0L25.74,21.09L26.33,21.09Z M36.98,0L34.63,0L34.63,21.09L36.98,21.09L36.98,0Z M33.46,0L32.88,0L32.88,21.09L33.46,21.09L33.46,0Z M31.12,0L31.12,21.09L31.7,21.09L31.7,0L31.12,0Z M17.78,21.09L18.37,21.09L18.37,0L17.78,0L17.78,21.09Z M21.88,21.09L21.88,0L20.71,0L20.71,21.09L21.88,21.09Z M23.05,0L22.47,0L22.47,21.09L23.05,21.09L23.05,0Z M49.48,0L48.9,0L48.9,21.09L49.48,21.09L49.48,0Z M53,0L52.41,0L52.41,21.09L53,21.09L53,0Z M51.24,0L50.07,0L50.07,21.09L51.24,21.09L51.24,0Z M12.99,0L12.41,0L12.41,21.09L12.99,21.09L12.99,0Z M14.16,0L13.58,0L13.58,21.09L14.16,21.09L14.16,0Z M8.89,0L8.89,21.09L10.06,21.09L10.06,0L8.89,0Z M56.86,21.09L59.2,21.09L59.2,0L56.86,0L56.86,21.09Z M53.34,21.09L53.93,21.09L53.93,0L53.34,0L53.34,21.09Z M55.1,21.09L55.69,21.09L55.69,0L55.1,0L55.1,21.09Z M43.52,0L43.52,21.09L44.11,21.09L44.11,0L43.52,0Z M45.28,21.09L45.28,0L44.7,0L44.7,21.09L45.28,21.09Z M41.18,0L40.01,0L40.01,21.09L41.18,21.09L41.18,0Z M35.56,0L35.56,21.09L36.15,21.09L36.15,0L35.56,0Z M40.84,0L40.84,21.09L41.42,21.09L41.42,0L40.84,0Z M39.66,21.09L39.66,0L37.32,0L37.32,21.09L39.66,21.09Z M0,0L0,21.09L1.17,21.09L1.17,0L0,0Z M5.86,0L4.1,0L4.1,21.09L5.86,21.09L5.86,0Z M3.52,21.09L3.52,0L1.76,0L1.76,21.09L3.52,21.09Z M5.62,21.09L6.79,21.09L6.79,0L5.62,0L5.62,21.09Z M7.96,0L7.96,21.09L8.55,21.09L8.55,0L7.96,0Z M5.03,0L4.45,0L4.45,21.09L5.03,21.09L5.03,0Z M30.77,21.09L30.77,0L30.19,0L30.19,21.09L30.77,21.09Z M27.84,21.09L29.02,21.09L29.02,0L27.84,0L27.84,21.09Z M26.67,0L26.67,21.09L27.26,21.09L27.26,0L26.67,0Z M17.44,21.09L17.44,0L16.85,0L16.85,21.09L17.44,21.09Z M15.09,21.09L16.27,21.09L16.27,0L15.09,0L15.09,21.09Z M13.34,0L13.34,21.09L13.92,21.09L13.92,0L13.34,0Z M47.97,21.09L48.55,21.09L48.55,0L47.97,0L47.97,21.09Z M45.63,21.09L45.63,0L44.45,0L44.45,21.09L45.63,21.09Z M49.14,21.09L49.73,21.09L49.73,0L49.14,0L49.14,21.09Z " />
    <g
       opacity="1"
       transform="translate(196.04500122074728 317.99999534076704)  rotate(0 59.99609994076779 59.99753668524085)"
       id="g3559">
      <mask
         id="bg-mask"
         fill="white">
        <use
           xlink:href="#path_0"
           id="use3551" />
      </mask>
      <g
         mask="url(#bg-mask)"
         id="g3557">
        <path
           id="分组 1"
           fill-rule="evenodd"
           style="fill:#707070"
           transform="translate(0 0)  rotate(0 59.99609994076779 59.99753668524085)"
           opacity="1"
           d="M65.05,39.15C64.32,41.29 61.13,46.54 56.13,48.49C56.13,48.49 52.91,48.92 53.52,51.45C53.52,51.45 54.36,54.82 57.97,52.91C57.97,52.91 67.14,48.35 71.63,37.25C71.63,37.25 74.4,36.18 77.92,36.85C77.92,36.85 72.38,53.95 61.12,59.43C61.12,59.43 50.18,65.27 52.35,51.48C52.35,51.48 53.77,38.1 74.78,29.25C74.78,29.25 88.03,22.92 96.23,19.93C91.07,15.2 85.03,11.53 78.46,9.13C76.61,8.46 74.73,8.17 72.86,7.71C61.64,15.39 51.74,30.49 48.34,40.81C48.34,40.81 42.26,55.96 50.94,65.28C50.94,65.28 59.01,72.91 70.41,61.91C70.41,61.91 77.64,55.98 82.03,38.24C82.03,38.24 83.66,39.17 83.76,39.52C83.86,39.87 82.84,54.08 76.32,63.98C76.32,63.98 69.32,75.87 56.62,74.53C43.92,73.21 37.42,62.84 33.67,53.96C30.88,47.33 28.94,31.51 31.39,14.33C21.57,20.49 13.54,29.67 9.26,41.43C6.37,49.37 5.65,57.5 6.46,65.37C17.22,73.04 42.95,88.84 65.54,82.69C80.87,78.51 84.32,64.13 84.32,64.13C87.94,53.55 85.1,40.69 85.1,40.69C102.7,72.6 78.38,92.03 78.38,92.03C65.61,103.98 46.68,107.32 32.18,106.2C35.14,108.01 38.27,109.52 41.52,110.72C69.54,120.93 100.52,106.46 110.72,78.42C115.44,65.41 114.69,51.84 109.92,39.92C107.43,39.21 104.63,38.34 101.71,37.16C101.71,37.16 88.7,33.11 80.2,34.15C75.76,34.59 71.37,35.49 67.11,36.83C67.11,36.83 65.77,37 65.05,39.15Z M54.49,0.28C44.55,1.07 39.7,4.14 39.99,3.59C23.74,9.39 9.99,21.87 3.63,39.37C-7.7,70.54 8.35,105.01 39.47,116.35C70.61,127.7 105.02,111.63 116.36,80.46C127.69,49.3 111.64,14.83 80.51,3.48C71.89,0.33 63.06,-0.52 54.49,0.28Z " />
        <path
           id="path3555"
           style="stroke:#FFFFFF; stroke-width:1; stroke-opacity:1; stroke-dasharray:0 0"
           transform="translate(0 0)  rotate(0 59.99609994076779 59.99753668524085)"
           d="M65.05,39.15C64.32,41.29 61.13,46.54 56.13,48.49C56.13,48.49 52.91,48.92 53.52,51.45C53.52,51.45 54.36,54.82 57.97,52.91C57.97,52.91 67.14,48.35 71.63,37.25C71.63,37.25 74.4,36.18 77.92,36.85C77.92,36.85 72.38,53.95 61.12,59.43C61.12,59.43 50.18,65.27 52.35,51.48C52.35,51.48 53.77,38.1 74.78,29.25C74.78,29.25 88.03,22.92 96.23,19.93C91.07,15.2 85.03,11.53 78.46,9.13C76.61,8.46 74.73,8.17 72.86,7.71C61.64,15.39 51.74,30.49 48.34,40.81C48.34,40.81 42.26,55.96 50.94,65.28C50.94,65.28 59.01,72.91 70.41,61.91C70.41,61.91 77.64,55.98 82.03,38.24C82.03,38.24 83.66,39.17 83.76,39.52C83.86,39.87 82.84,54.08 76.32,63.98C76.32,63.98 69.32,75.87 56.62,74.53C43.92,73.21 37.42,62.84 33.67,53.96C30.88,47.33 28.94,31.51 31.39,14.33C21.57,20.49 13.54,29.67 9.26,41.43C6.37,49.37 5.65,57.5 6.46,65.37C17.22,73.04 42.95,88.84 65.54,82.69C80.87,78.51 84.32,64.13 84.32,64.13C87.94,53.55 85.1,40.69 85.1,40.69C102.7,72.6 78.38,92.03 78.38,92.03C65.61,103.98 46.68,107.32 32.18,106.2C35.14,108.01 38.27,109.52 41.52,110.72C69.54,120.93 100.52,106.46 110.72,78.42C115.44,65.41 114.69,51.84 109.92,39.92C107.43,39.21 104.63,38.34 101.71,37.16C101.71,37.16 88.7,33.11 80.2,34.15C75.76,34.59 71.37,35.49 67.11,36.83C67.11,36.83 65.77,37 65.05,39.15Z M54.49,0.28C44.55,1.07 39.7,4.14 39.99,3.59C23.74,9.39 9.99,21.87 3.63,39.37C-7.7,70.54 8.35,105.01 39.47,116.35C70.61,127.7 105.02,111.63 116.36,80.46C127.69,49.3 111.64,14.83 80.51,3.48C71.89,0.33 63.06,-0.52 54.49,0.28Z " />
      </g>
    </g>
  </g>
  <g
     id="g512"
     transform="matrix(0.11939116,0,0,0.11939116,366.71998,369.95995)">
    <path
       style="fill:#39cf8d;stroke-width:1.33333"
       d="m 290.00001,360.4718 c -2.2,-0.26687 -12.7,-1.41391 -23.33333,-2.54896 -10.63334,-1.13505 -33.73334,-4.37525 -51.33334,-7.20044 C 160.44887,341.91225 83.080403,329.76896 57.333335,325.92368 43.766668,323.8975 32.29695,321.68029 31.845073,320.99652 c -1.050461,-1.58954 1.74408,-16.26335 6.24139,-32.7728 16.189004,-59.42926 52.934956,-116.77743 99.863717,-155.85397 6.62741,-5.51849 12.57163,-11.33408 13.2094,-12.92353 0.99096,-2.4697 -3.13185,-8.57946 -28.3543,-42.019436 C 106.57266,55.905542 92.928855,36.852659 92.485714,35.087045 90.974922,29.067572 92.748553,17.685115 95.918078,13.059496 103.24885,2.3609403 115.34434,-2.1403014 125.91462,1.8965242 c 7.77409,2.9689508 11.18286,6.8848654 44.48533,51.1034778 15.60239,20.716667 28.86214,37.666668 29.46611,37.666668 0.60399,0 6.1312,-2.348432 12.28272,-5.218738 21.38577,-9.978643 50.81906,-18.953363 76.5179,-23.331641 60.32489,-10.277475 128.59333,-1.518586 181.85123,23.331641 6.15152,2.870306 11.67357,5.218738 12.27125,5.218738 0.59768,0 14.70619,-18.031625 31.35226,-40.070278 16.64606,-22.038652 32.63179,-42.0956788 35.52384,-44.571169 11.34832,-9.7137382 27.82332,-6.68984216 36.94831,6.781659 3.90425,5.763973 5.38829,19.540298 2.6551,24.647301 -0.92708,1.732273 -14.22172,19.842675 -29.54365,40.245337 -15.32192,20.402662 -28.17832,37.93037 -28.56976,38.95047 -1.1076,2.88635 0.6408,4.90396 13.51143,15.59182 39.49418,32.79628 72.51389,79.68434 91.37887,129.7582 8.06893,21.41763 16.75793,56.07713 14.77606,58.94017 -0.45188,0.65279 -11.9216,2.8668 -25.48827,4.92004 -60.18141,9.10812 -118.48747,18.27565 -124,19.49667 -7.95485,1.76199 -62.81891,10.08243 -84.66667,12.84018 -12.98493,1.63902 -30.54579,2.25966 -70,2.47393 -28.96667,0.15731 -54.46667,0.0676 -56.66667,-0.1992 z"
       id="path516" />
    <path
       style="fill:#f39602;stroke-width:1.33333"
       d="M 315.33334,681.84436 C 237.45709,673.7143 170.91849,642.84253 118.56516,590.55026 69.225276,541.2679 39.492023,480.57054 29.140977,408.00001 c -3.294044,-23.09433 -1.374611,-80.29969 2.835592,-84.50991 1.874016,-1.87401 42.920338,4.74754 45.520088,7.34326 1.193527,1.19168 21.530589,60.29168 45.193473,131.33334 23.66288,71.04166 44.22852,130.88657 45.70141,132.98869 2.85753,4.0783 11.67697,8.76704 16.58148,8.81535 9.17865,0.0904 11.47003,-2.14284 84.15696,-82.0221 39.01158,-42.87174 71.49291,-77.94862 72.18076,-77.94862 0.68785,0 33.21398,35.1037 72.28031,78.00825 60.15553,66.06572 71.89193,78.33754 76.66181,80.15918 10.07269,3.8468 20.70505,-0.27908 25.63177,-9.94638 1.37,-2.68825 20.94607,-60.68772 43.50238,-128.88772 34.55556,-104.48031 43.14677,-129.76595 45.44849,-133.76391 0.38376,-0.66658 39.38288,-6.85919 43.34242,-6.88228 4.39205,-0.0256 4.59566,0.83322 6.71058,28.30525 3.26696,42.43652 -3.94837,90.43279 -19.6035,130.40214 -41.70745,106.48387 -133.78945,180.00409 -248.00739,198.01431 -12.76436,2.01272 -60.51119,3.62907 -71.94427,2.4355 z M 210.12178,453.66668 c -2.17489,-7.00354 -24.63897,-97.78307 -25.24068,-102 -0.61067,-4.27976 -0.34704,-5 1.83011,-5 1.39894,0 15.61122,2.06505 31.58284,4.58901 30.77944,4.86402 61.79596,8.74003 69.9606,8.74271 2.70672,8.8e-4 5.20885,0.46687 5.56031,1.03552 0.35144,0.56864 -1.26315,3.57781 -3.58799,6.68703 -8.22456,10.99949 -76.2502,88.10904 -77.80378,88.19343 -0.86725,0.0471 -1.90289,-0.96436 -2.30141,-2.2477 z m 222.5449,-39.05708 c -38.12215,-43.69785 -44.84171,-51.91435 -43.81495,-53.57568 0.35146,-0.56865 2.85359,-1.03464 5.56031,-1.03552 8.16464,-0.003 39.18116,-3.87869 69.9606,-8.74271 15.97162,-2.52396 30.2488,-4.58901 31.7271,-4.58901 3.47654,0 3.60982,-0.72721 -9.65284,52.66667 -13.03546,52.47912 -14.23906,56.68247 -16.20816,56.60412 -0.86463,-0.0344 -17.77206,-18.63194 -37.57206,-41.32787 z"
       id="path514" />
  </g>
</svg>
