<?xml version="1.0" encoding="UTF-8" standalone="no"?>
<svg
   width="514"
   height="512"
   viewBox="0 0 514 512"
   fill="none"
   version="1.1"
   id="svg3680"
   sodipodi:docname="menu.svg"
   inkscape:version="1.2.1 (9c6d41e410, 2022-07-14)"
   xmlns:inkscape="http://www.inkscape.org/namespaces/inkscape"
   xmlns:sodipodi="http://sodipodi.sourceforge.net/DTD/sodipodi-0.dtd"
   xmlns="http://www.w3.org/2000/svg"
   xmlns:svg="http://www.w3.org/2000/svg">
  <sodipodi:namedview
     id="namedview3682"
     pagecolor="#ffffff"
     bordercolor="#666666"
     borderopacity="1.0"
     inkscape:showpageshadow="2"
     inkscape:pageopacity="0.0"
     inkscape:pagecheckerboard="0"
     inkscape:deskcolor="#d1d1d1"
     showgrid="false"
     inkscape:zoom="1.2539062"
     inkscape:cx="257.99377"
     inkscape:cy="256.39875"
     inkscape:window-width="1066"
     inkscape:window-height="528"
     inkscape:window-x="547"
     inkscape:window-y="53"
     inkscape:window-maximized="0"
     inkscape:current-layer="svg3680" />
  <defs
     id="defs3642">
    <linearGradient
       id="linear_0"
       x1="96.37%"
       y1="96.011%"
       x2="2.8400000000000003%"
       y2="0%"
       gradientUnits="objectBoundingBox">
      <stop
         offset="0"
         stop-color="#00BAAD"
         stop-opacity="1"
         id="stop3567" />
      <stop
         offset="1"
         stop-color="#43CF7C"
         stop-opacity="1"
         id="stop3569" />
    </linearGradient>
    <filter
       id="filter_2"
       x="60.5"
       y="54"
       width="387"
       height="204"
       filterUnits="userSpaceOnUse"
       color-interpolation-filters="sRGB">
      <feFlood
         flood-opacity="0"
         result="BackgroundImageFix"
         id="feFlood3572" />
      <feColorMatrix
         in="SourceAlpha"
         type="matrix"
         values="0 0 0 0 0 0 0 0 0 0 0 0 0 0 0 0 0 0 127 0"
         id="feColorMatrix3574" />
      <feOffset
         dx="0"
         dy="0"
         id="feOffset3576" />
      <feGaussianBlur
         stdDeviation="1"
         id="feGaussianBlur3578" />
      <feColorMatrix
         type="matrix"
         values="0 0 0 0 0 0 0 0 0 0 0 0 0 0 0 0 0 0 0.5 0"
         id="feColorMatrix3580" />
      <feBlend
         mode="normal"
         in2="BackgroundImageFix"
         result="effect1_Shadow"
         id="feBlend3582" />
      <feBlend
         mode="normal"
         in="SourceGraphic"
         in2="effect1_Shadow"
         result="shape"
         id="feBlend3584" />
    </filter>
    <linearGradient
       id="linear_1"
       x1="50%"
       y1="100%"
       x2="51%"
       y2="0%"
       gradientUnits="objectBoundingBox">
      <stop
         offset="0"
         stop-color="#ACCBEE"
         stop-opacity="1"
         id="stop3587" />
      <stop
         offset="1"
         stop-color="#E7F0FD"
         stop-opacity="1"
         id="stop3589" />
    </linearGradient>
    <filter
       id="filter_4"
       x="52"
       y="254"
       width="404"
       height="204"
       filterUnits="userSpaceOnUse"
       color-interpolation-filters="sRGB">
      <feFlood
         flood-opacity="0"
         result="BackgroundImageFix"
         id="feFlood3592" />
      <feColorMatrix
         in="SourceAlpha"
         type="matrix"
         values="0 0 0 0 0 0 0 0 0 0 0 0 0 0 0 0 0 0 127 0"
         id="feColorMatrix3594" />
      <feOffset
         dx="0"
         dy="0"
         id="feOffset3596" />
      <feGaussianBlur
         stdDeviation="1"
         id="feGaussianBlur3598" />
      <feColorMatrix
         type="matrix"
         values="0 0 0 0 0 0 0 0 0 0 0 0 0 0 0 0 0 0 0.5 0"
         id="feColorMatrix3600" />
      <feBlend
         mode="normal"
         in2="BackgroundImageFix"
         result="effect1_Shadow"
         id="feBlend3602" />
      <feBlend
         mode="normal"
         in="SourceGraphic"
         in2="effect1_Shadow"
         result="shape"
         id="feBlend3604" />
    </filter>
    <filter
       id="filter_12"
       x="-7"
       y="-7"
       width="276"
       height="156"
       filterUnits="userSpaceOnUse"
       color-interpolation-filters="sRGB">
      <feFlood
         flood-opacity="0"
         result="BackgroundImageFix"
         id="feFlood3607" />
      <feColorMatrix
         in="SourceAlpha"
         type="matrix"
         values="0 0 0 0 0 0 0 0 0 0 0 0 0 0 0 0 0 0 127 0"
         id="feColorMatrix3609" />
      <feOffset
         dx="0"
         dy="-2"
         id="feOffset3611" />
      <feGaussianBlur
         stdDeviation="3.5"
         id="feGaussianBlur3613" />
      <feColorMatrix
         type="matrix"
         values="0 0 0 0 0 0 0 0 0 0 0 0 0 0 0 0 0 0 0.5 0"
         id="feColorMatrix3615" />
      <feBlend
         mode="normal"
         in2="BackgroundImageFix"
         result="effect1_Shadow"
         id="feBlend3617" />
      <feBlend
         mode="normal"
         in="SourceGraphic"
         in2="effect1_Shadow"
         result="shape"
         id="feBlend3619" />
    </filter>
    <linearGradient
       id="linear_2"
       x1="50%"
       y1="100%"
       x2="51%"
       y2="0%"
       gradientUnits="objectBoundingBox">
      <stop
         offset="0"
         stop-color="#F5F9FF"
         stop-opacity="1"
         id="stop3622" />
      <stop
         offset="1"
         stop-color="#E7F0FD"
         stop-opacity="1"
         id="stop3624" />
    </linearGradient>
    <filter
       id="filter_24"
       x="-6"
       y="220"
       width="521"
       height="79"
       filterUnits="userSpaceOnUse"
       color-interpolation-filters="sRGB">
      <feFlood
         flood-opacity="0"
         result="BackgroundImageFix"
         id="feFlood3627" />
      <feColorMatrix
         in="SourceAlpha"
         type="matrix"
         values="0 0 0 0 0 0 0 0 0 0 0 0 0 0 0 0 0 0 127 0"
         id="feColorMatrix3629" />
      <feOffset
         dx="0"
         dy="0"
         id="feOffset3631" />
      <feGaussianBlur
         stdDeviation="2"
         id="feGaussianBlur3633" />
      <feColorMatrix
         type="matrix"
         values="0 0 0 0 0 0 0 0 0 0 0 0 0 0 0 0 0 0 0.5 0"
         id="feColorMatrix3635" />
      <feBlend
         mode="normal"
         in2="BackgroundImageFix"
         result="effect1_Shadow"
         id="feBlend3637" />
      <feBlend
         mode="normal"
         in="SourceGraphic"
         in2="effect1_Shadow"
         result="shape"
         id="feBlend3639" />
    </filter>
  </defs>
  <g
     opacity="1"
     transform="translate(2 0)  rotate(0 256 256)"
     id="g3678">
    <g
       id="g3645"
       filter="url(#filter_2)">
      <path
         id="矩形 1"
         fill-rule="evenodd"
         fill="url(#linear_0)"
         transform="translate(62.5 56)  rotate(0 191.5 100)"
         opacity="1"
         d="M0,200L383,200L383,18.000000000000004C383,13.226103182888199 381.10357687342247,8.647732750706759 377.72792206135784,5.272077938642134C374.3522672492932,1.8964231265775098 369.7738968171118,-1.0658141036401503e-14 365,-7.105427357601002e-15L18.000000000000004,0C13.226103182888211,-3.552713678800501e-15 8.647732750706767,1.8964231265775169 5.272077938642141,5.272077938642143C1.8964231265775169,8.64773275070677 -3.552713678800501e-15,13.226103182888213 -3.552713678800501e-15,18.000000000000007L0,200Z " />
    </g>
    <g
       id="g3648"
       filter="url(#filter_4)">
      <path
         id="矩形 2"
         fill-rule="evenodd"
         fill="url(#linear_1)"
         transform="translate(54 256)  rotate(0 200 100)"
         opacity="1"
         d="M1.1021821192326181e-15,182C0,186.7738968171118 1.8964231265775169,191.35226724929322 5.272077938642141,194.72792206135784C8.647732750706766,198.10357687342247 13.226103182888204,200 17.999999999999996,200L382,200C391.94112549695427,200 400,191.94112549695427 400,182L400,0L0,0Z " />
    </g>
    <g
       opacity="1"
       transform="translate(125 82)  rotate(0 131 71)"
       id="g3653">
      <g
         id="g3651"
         filter="url(#filter_12)">
        <path
           id="形状"
           fill-rule="evenodd"
           style="fill:#FFFFFF"
           transform="translate(0 0)  rotate(0 131 71)"
           opacity="1"
           d="M218.17529,3.05216c0.30871,1.07545 0.17678,2.23009 -0.36413,3.20765l-15.89229,28.66011l-5.07931,9.08019c1.53303,0.83359 3.06078,1.68301 4.58061,2.54971c1.51983,0.8667 3.01856,1.76075 4.49881,2.68072c26.4203,16.46009 46.00135,41.4792 54.22059,70.7699c2.26656,7.79598 3.51462,15.85254 3.72043,23.96957h-263.86c0.20318,-8.12711 1.45123,-16.19375 3.72043,-23.9998c8.20077,-29.26046 27.80029,-54.27957 54.19948,-70.73966c1.47234,-0.95452 2.96578,-1.86009 4.48034,-2.72103c1.51192,-0.8595 3.04758,-1.69597 4.59908,-2.5094l-5.0793,-9.08019l-15.81049,-28.60972c-1.06072,-2.02997 -0.30872,-4.53649 1.69398,-5.64794c2.00269,-1.11 4.52783,-0.41895 5.68618,1.55776l16.10074,28.99988l5.07931,9.15073c1.59899,-0.6709 3.21909,-1.34036 4.8603,-2.00118c1.63329,-0.64642 3.28241,-1.26549 4.95001,-1.86009c30.74232,-10.81791 64.25782,-10.81791 95.00015,0c1.67023,0.59027 3.3088,1.24102 4.95001,1.86009c1.63857,0.62051 3.25867,1.28997 4.8603,2.00118l5.07931,-9.15073l16.10074,-29.05027c0.74144,-1.34036 2.15573,-2.17251 3.68876,-2.16963c0.70187,0.00432 1.39054,0.18716 2.00006,0.52981c0.98156,0.53988 1.70454,1.44833 2.01589,2.52235z M83.92,92.00001c0,-6.62736 -5.37264,-12 -12,-12c-6.62736,0 -12,5.37264 -12,12c0,6.62736 5.37264,12 12,12c6.62736,0 12,-5.37264 12,-12z M203.92,92.00001c0,-6.62736 -5.37264,-12 -12,-12c-6.62736,0 -12,5.37264 -12,12c0,6.62736 5.37264,12 12,12c6.62736,0 12,-5.37264 12,-12z " />
      </g>
    </g>
    <g
       opacity="1"
       transform="translate(187.99998813414405 315)  rotate(0 63.99999008859811 63.999990088598096)"
       id="g3670">
      <path
         id="矩形 4 (轮廓)"
         fill-rule="evenodd"
         style="fill:#707070"
         transform="translate(43.919550618861265 8.310030262460746)  rotate(45 20.07435 20.09155)"
         opacity="1"
         d="M0 32.18L0 8C0 5.88 0.84 3.84 2.34 2.34C3.84 0.84 5.88 0 8 0L32.15 0C34.27 0 36.31 0.84 37.81 2.34C39.31 3.84 40.15 5.88 40.15 8L40.15 32.18C40.15 36.6 36.57 40.18 32.15 40.18L8 40.18C5.88 40.18 3.84 39.34 2.34 37.84C0.84 36.34 0 34.3 0 32.18ZM8 7L32.15 7C32.42 7 32.66 7.1 32.86 7.29C33.05 7.49 33.15 7.72 33.15 8L33.15 32.18C33.15 32.46 33.05 32.69 32.86 32.89C32.66 33.09 32.42 33.18 32.15 33.18L8 33.18C7.72 33.18 7.49 33.09 7.29 32.89C7.1 32.69 7 32.46 7 32.18L7 8C7 7.72 7.1 7.49 7.29 7.29C7.49 7.1 7.72 7 8 7Z" />
      <path
         id="path3656"
         style="stroke:#FFFFFF; stroke-width:1; stroke-opacity:1; stroke-dasharray:0 0"
         transform="translate(43.919550618861265 8.310030262460746)  rotate(45 20.07435 20.09155)"
         d="M0,8L0,32.18C0,34.3 0.84,36.34 2.34,37.84C3.84,39.34 5.88,40.18 8,40.18L32.15,40.18C36.57,40.18 40.15,36.6 40.15,32.18L40.15,8C40.15,5.88 39.31,3.84 37.81,2.34C36.31,0.84 34.27,0 32.15,0L8,0C5.88,0 3.84,0.84 2.34,2.34C0.84,3.84 0,5.88 0,8Z M32.15,7L8,7C7.72,7 7.49,7.1 7.29,7.29C7.1,7.49 7,7.72 7,8L7,32.18C7,32.46 7.1,32.69 7.29,32.89C7.49,33.09 7.72,33.18 8,33.18L32.15,33.18C32.42,33.18 32.66,33.09 32.86,32.89C33.05,32.69 33.15,32.46 33.15,32.18L33.15,8C33.15,7.72 33.05,7.49 32.86,7.29C32.66,7.1 32.42,7 32.15,7Z " />
      <path
         id="path3658"
         fill-rule="evenodd"
         style="fill:#707070"
         transform="translate(8.327230262460748 43.908440088598084)  rotate(45 20.07435 20.09155)"
         opacity="1"
         d="M8 0L32.15 0C34.27 0 36.31 0.84 37.81 2.34C39.31 3.84 40.15 5.88 40.15 8L40.15 32.18C40.15 36.6 36.57 40.18 32.15 40.18L8 40.18C5.88 40.18 3.84 39.34 2.34 37.84C0.84 36.34 0 34.3 0 32.18L0 8C0 5.88 0.84 3.84 2.34 2.34C3.84 0.84 5.88 0 8 0ZM8 33.18C7.72 33.18 7.49 33.09 7.29 32.89C7.1 32.69 7 32.46 7 32.18L7 8C7 7.72 7.1 7.49 7.29 7.29C7.49 7.1 7.72 7 8 7L32.15 7C32.42 7 32.66 7.1 32.86 7.29C33.05 7.49 33.15 7.72 33.15 8L33.15 32.18C33.15 32.46 33.05 32.69 32.86 32.89C32.66 33.09 32.42 33.18 32.15 33.18L8 33.18Z" />
      <path
         id="path3660"
         style="stroke:#FFFFFF; stroke-width:1; stroke-opacity:1; stroke-dasharray:0 0"
         transform="translate(8.327230262460748 43.908440088598084)  rotate(45 20.07435 20.09155)"
         d="M32.15,0L8,0C5.88,0 3.84,0.84 2.34,2.34C0.84,3.84 0,5.88 0,8L0,32.18C0,34.3 0.84,36.34 2.34,37.84C3.84,39.34 5.88,40.18 8,40.18L32.15,40.18C36.57,40.18 40.15,36.6 40.15,32.18L40.15,8C40.15,5.88 39.31,3.84 37.81,2.34C36.31,0.84 34.27,0 32.15,0Z M7.29,32.89C7.49,33.09 7.72,33.18 8,33.18L32.15,33.18C32.42,33.18 32.66,33.09 32.86,32.89C33.05,32.69 33.15,32.46 33.15,32.18L33.15,8C33.15,7.72 33.05,7.49 32.86,7.29C32.66,7.1 32.42,7 32.15,7L8,7C7.72,7 7.49,7.1 7.29,7.29C7.1,7.49 7,7.72 7,8L7,32.18C7,32.46 7.1,32.69 7.29,32.89Z " />
      <path
         id="path3662"
         fill-rule="evenodd"
         style="fill:#707070"
         transform="translate(43.9256400885981 79.50684991473544)  rotate(45 20.07435 20.09155)"
         opacity="1"
         d="M2.34 2.34C3.84 0.84 5.88 0 8 0L32.15 0C34.27 0 36.31 0.84 37.81 2.34C39.31 3.84 40.15 5.88 40.15 8L40.15 32.18C40.15 36.6 36.57 40.18 32.15 40.18L8 40.18C5.88 40.18 3.84 39.34 2.34 37.84C0.84 36.34 0 34.3 0 32.18L0 8C0 5.88 0.84 3.84 2.34 2.34ZM7 32.18L7 8C7 7.72 7.1 7.49 7.29 7.29C7.49 7.1 7.72 7 8 7L32.15 7C32.42 7 32.66 7.1 32.86 7.29C33.05 7.49 33.15 7.72 33.15 8L33.15 32.18C33.15 32.46 33.05 32.69 32.86 32.89C32.66 33.09 32.42 33.18 32.15 33.18L8 33.18C7.72 33.18 7.49 33.09 7.29 32.89C7.1 32.69 7 32.46 7 32.18Z" />
      <path
         id="path3664"
         style="stroke:#FFFFFF; stroke-width:1; stroke-opacity:1; stroke-dasharray:0 0"
         transform="translate(43.9256400885981 79.50684991473544)  rotate(45 20.07435 20.09155)"
         d="M7,8L7,32.18C7,32.46 7.1,32.69 7.29,32.89C7.49,33.09 7.72,33.18 8,33.18L32.15,33.18C32.42,33.18 32.66,33.09 32.86,32.89C33.05,32.69 33.15,32.46 33.15,32.18L33.15,8C33.15,7.72 33.05,7.49 32.86,7.29C32.66,7.1 32.42,7 32.15,7L8,7C7.72,7 7.49,7.1 7.29,7.29C7.1,7.49 7,7.72 7,8Z M8,0C5.88,0 3.84,0.84 2.34,2.34C0.84,3.84 0,5.88 0,8L0,32.18C0,34.3 0.84,36.34 2.34,37.84C3.84,39.34 5.88,40.18 8,40.18L32.15,40.18C36.57,40.18 40.15,36.6 40.15,32.18L40.15,8C40.15,5.88 39.31,3.84 37.81,2.34C36.31,0.84 34.27,0 32.15,0L8,0Z " />
      <path
         id="path3666"
         fill-rule="evenodd"
         style="fill:#707070"
         transform="translate(79.52404991473547 43.908440088598084)  rotate(45 20.07435 20.09155)"
         opacity="1"
         d="M2.34 37.84C0.84 36.34 0 34.3 0 32.18L0 8C0 5.88 0.84 3.84 2.34 2.34C3.84 0.84 5.88 0 8 0L32.15 0C34.27 0 36.31 0.84 37.81 2.34C39.31 3.84 40.15 5.88 40.15 8L40.15 32.18C40.15 36.6 36.57 40.18 32.15 40.18L8 40.18C5.88 40.18 3.84 39.34 2.34 37.84ZM32.15 7C32.42 7 32.66 7.1 32.86 7.29C33.05 7.49 33.15 7.72 33.15 8L33.15 32.18C33.15 32.46 33.05 32.69 32.86 32.89C32.66 33.09 32.42 33.18 32.15 33.18L8 33.18C7.72 33.18 7.49 33.09 7.29 32.89C7.1 32.69 7 32.46 7 32.18L7 8C7 7.72 7.1 7.49 7.29 7.29C7.49 7.1 7.72 7 8 7L32.15 7Z" />
      <path
         id="path3668"
         style="stroke:#FFFFFF; stroke-width:1; stroke-opacity:1; stroke-dasharray:0 0"
         transform="translate(79.52404991473547 43.908440088598084)  rotate(45 20.07435 20.09155)"
         d="M32.86,7.29C32.66,7.1 32.42,7 32.15,7L8,7C7.72,7 7.49,7.1 7.29,7.29C7.1,7.49 7,7.72 7,8L7,32.18C7,32.46 7.1,32.69 7.29,32.89C7.49,33.09 7.72,33.18 8,33.18L32.15,33.18C32.42,33.18 32.66,33.09 32.86,32.89C33.05,32.69 33.15,32.46 33.15,32.18L33.15,8C33.15,7.72 33.05,7.49 32.86,7.29Z M0,32.18C0,34.3 0.84,36.34 2.34,37.84C3.84,39.34 5.88,40.18 8,40.18L32.15,40.18C36.57,40.18 40.15,36.6 40.15,32.18L40.15,8C40.15,5.88 39.31,3.84 37.81,2.34C36.31,0.84 34.27,0 32.15,0L8,0C5.88,0 3.84,0.84 2.34,2.34C0.84,3.84 0,5.88 0,8L0,32.18Z " />
    </g>
    <g
       id="g3673"
       filter="url(#filter_24)">
      <path
         id="矩形 3"
         fill-rule="evenodd"
         fill="url(#linear_2)"
         transform="translate(-2 224)  rotate(0 256.5 35.5)"
         opacity="1"
         d="M10.232250952256361,58.04214068005196C8.332096543530504,60.4484473304004 7.974403633993694,63.72909499409552 9.31135108229396,66.48834670298234C10.648298530594225,69.24759841186918 13.444667959828811,71 16.510756424389392,71L496.4892435756106,71C499.5553320401712,71.00000000000001 502.3517014694058,69.24759841186919 503.6886489177061,66.48834670298237C505.02559636600637,63.72909499409554 504.66790345646956,60.448447330400406 502.7677490477437,58.04214068005195L459.3366707748275,3.042140680051967C457.81952964784824,1.1208721943948827 455.50622367478263,2.6645352591003757e-15 453.0581653026945,-8.881784197001252e-16L59.941834697305566,0C57.4937763252174,-1.7763568394002505e-15 55.180470352151815,1.1208721943948738 53.663329225172546,3.042140680051956Z " />
    </g>
    <path
       id="文本 1"
       fill-rule="evenodd"
       style="fill:#707070"
       transform="translate(74.55078125 302.90625)  rotate(0 25.15625 10.546875)"
       opacity="0.8"
       d="M0.59 21.09L0 21.09L0 0L0.59 0L0.59 21.09ZM4.1 0L4.1 21.09L1.76 21.09L1.76 0L4.1 0ZM5.03 21.09L5.03 0L4.45 0L4.45 21.09L5.03 21.09ZM5.27 21.09L5.86 21.09L5.86 0L5.27 0L5.27 21.09ZM6.79 21.09L6.79 0L7.96 0L7.96 21.09L6.79 21.09ZM8.89 21.09L8.89 0L8.54 0L8.54 21.09L8.89 21.09ZM9.13 21.09L9.13 0L10.06 0L10.06 21.09L9.13 21.09ZM12.41 0L12.41 21.09L12.99 21.09L12.99 0L12.41 0ZM13.34 21.09L13.58 21.09L13.58 0L13.34 0L13.34 21.09ZM14.16 21.09L13.92 21.09L13.92 0L14.16 0L14.16 21.09ZM15.09 0L16.27 0L16.27 21.09L15.09 21.09L15.09 0ZM16.85 21.09L16.85 0L17.44 0L17.44 21.09L16.85 21.09ZM18.37 21.09L18.37 0L17.78 0L17.78 21.09L18.37 21.09ZM21.88 21.09L20.71 21.09L20.71 0L21.88 0L21.88 21.09ZM22.23 21.09L22.47 21.09L22.47 0L22.23 0L22.23 21.09ZM23.4 21.09L23.05 21.09L23.05 0L23.4 0L23.4 21.09ZM26.33 0L26.33 21.09L25.74 21.09L25.74 0L26.33 0ZM26.91 0L26.67 0L26.67 21.09L26.91 21.09L26.91 0ZM27.26 0L27.26 21.09L27.5 21.09L27.5 0L27.26 0ZM27.84 0L27.84 21.09L29.02 21.09L29.02 0L27.84 0ZM30.19 21.09L30.77 21.09L30.77 0L30.19 0L30.19 21.09ZM31.7 0L31.12 0L31.12 21.09L31.7 21.09L31.7 0ZM34.05 0L32.29 0L32.29 21.09L34.05 21.09L34.05 0ZM35.56 21.09L34.63 21.09L34.63 0L35.56 0L35.56 21.09ZM35.8 21.09L36.15 21.09L36.15 0L35.8 0L35.8 21.09ZM36.73 21.09L37.91 21.09L37.91 0L36.73 0L36.73 21.09ZM39.66 0L39.66 21.09L39.08 21.09L39.08 0L39.66 0ZM41.18 21.09L41.18 0L40.01 0L40.01 21.09L41.18 21.09ZM43.52 0L43.52 21.09L44.11 21.09L44.11 0L43.52 0ZM44.7 0L44.45 0L44.45 21.09L44.7 21.09L44.7 0ZM45.28 21.09L45.04 21.09L45.04 0L45.28 0L45.28 21.09ZM46.21 21.09L46.21 0L48.55 0L48.55 21.09L46.21 21.09ZM50.31 0L49.73 0L49.73 21.09L50.31 21.09L50.31 0Z" />
    <path
       id="path3676"
       style="stroke:#FFFFFF; stroke-width:0.1; stroke-opacity:1; stroke-dasharray:0 0"
       transform="translate(74.55078125 302.90625)  rotate(0 25.15625 10.546875)"
       d="M12.41,0L12.41,21.09L12.99,21.09L12.99,0L12.41,0Z M8.89,0L8.89,21.09L10.06,21.09L10.06,0L8.89,0Z M14.16,0L13.58,0L13.58,21.09L14.16,21.09L14.16,0Z M27.84,0L27.84,21.09L29.02,21.09L29.02,0L27.84,0Z M27.26,21.09L27.26,0L26.67,0L26.67,21.09L27.26,21.09Z M30.19,21.09L30.77,21.09L30.77,0L30.19,0L30.19,21.09Z M22.47,21.09L23.05,21.09L23.05,0L22.47,0L22.47,21.09Z M18.37,21.09L18.37,0L17.78,0L17.78,21.09L18.37,21.09Z M20.71,21.09L21.88,21.09L21.88,0L20.71,0L20.71,21.09Z M43.52,0L43.52,21.09L44.11,21.09L44.11,0L43.52,0Z M45.28,21.09L45.28,0L44.7,0L44.7,21.09L45.28,21.09Z M41.18,21.09L41.18,0L40.01,0L40.01,21.09L41.18,21.09Z M0,21.09L0.59,21.09L0.59,0L0,0L0,21.09Z M5.27,21.09L5.86,21.09L5.86,0L5.27,0L5.27,21.09Z M4.1,21.09L4.1,0L1.76,0L1.76,21.09L4.1,21.09Z M31.7,0L31.12,0L31.12,21.09L31.7,21.09L31.7,0Z M34.63,21.09L35.8,21.09L35.8,0L34.63,0L34.63,21.09Z M34.05,0L32.29,0L32.29,21.09L34.05,21.09L34.05,0Z M26.33,21.09L26.33,0L25.74,0L25.74,21.09L26.33,21.09Z M22.23,21.09L23.4,21.09L23.4,0L22.23,0L22.23,21.09Z M27.5,21.09L27.5,0L26.91,0L26.91,21.09L27.5,21.09Z M50.31,0L49.73,0L49.73,21.09L50.31,21.09L50.31,0Z M46.21,0L46.21,21.09L48.55,21.09L48.55,0L46.21,0Z M45.04,0L44.45,0L44.45,21.09L45.04,21.09L45.04,0Z M39.66,21.09L39.66,0L39.08,0L39.08,21.09L39.66,21.09Z M36.73,21.09L37.91,21.09L37.91,0L36.73,0L36.73,21.09Z M35.56,0L35.56,21.09L36.15,21.09L36.15,0L35.56,0Z M9.13,21.09L9.13,0L8.54,0L8.54,21.09L9.13,21.09Z M6.79,0L6.79,21.09L7.96,21.09L7.96,0L6.79,0Z M5.03,21.09L5.03,0L4.45,0L4.45,21.09L5.03,21.09Z M16.27,0L15.09,0L15.09,21.09L16.27,21.09L16.27,0Z M13.34,21.09L13.92,21.09L13.92,0L13.34,0L13.34,21.09Z M16.85,0L16.85,21.09L17.44,21.09L17.44,0L16.85,0Z " />
  </g>
  <g
     id="g512"
     transform="matrix(0.11939116,0,0,0.11939116,366.71998,369.95995)">
    <path
       style="fill:#39cf8d;stroke-width:1.33333"
       d="m 290.00001,360.4718 c -2.2,-0.26687 -12.7,-1.41391 -23.33333,-2.54896 -10.63334,-1.13505 -33.73334,-4.37525 -51.33334,-7.20044 C 160.44887,341.91225 83.080403,329.76896 57.333335,325.92368 43.766668,323.8975 32.29695,321.68029 31.845073,320.99652 c -1.050461,-1.58954 1.74408,-16.26335 6.24139,-32.7728 16.189004,-59.42926 52.934956,-116.77743 99.863717,-155.85397 6.62741,-5.51849 12.57163,-11.33408 13.2094,-12.92353 0.99096,-2.4697 -3.13185,-8.57946 -28.3543,-42.019436 C 106.57266,55.905542 92.928855,36.852659 92.485714,35.087045 90.974922,29.067572 92.748553,17.685115 95.918078,13.059496 103.24885,2.3609403 115.34434,-2.1403014 125.91462,1.8965242 c 7.77409,2.9689508 11.18286,6.8848654 44.48533,51.1034778 15.60239,20.716667 28.86214,37.666668 29.46611,37.666668 0.60399,0 6.1312,-2.348432 12.28272,-5.218738 21.38577,-9.978643 50.81906,-18.953363 76.5179,-23.331641 60.32489,-10.277475 128.59333,-1.518586 181.85123,23.331641 6.15152,2.870306 11.67357,5.218738 12.27125,5.218738 0.59768,0 14.70619,-18.031625 31.35226,-40.070278 16.64606,-22.038652 32.63179,-42.0956788 35.52384,-44.571169 11.34832,-9.7137382 27.82332,-6.68984216 36.94831,6.781659 3.90425,5.763973 5.38829,19.540298 2.6551,24.647301 -0.92708,1.732273 -14.22172,19.842675 -29.54365,40.245337 -15.32192,20.402662 -28.17832,37.93037 -28.56976,38.95047 -1.1076,2.88635 0.6408,4.90396 13.51143,15.59182 39.49418,32.79628 72.51389,79.68434 91.37887,129.7582 8.06893,21.41763 16.75793,56.07713 14.77606,58.94017 -0.45188,0.65279 -11.9216,2.8668 -25.48827,4.92004 -60.18141,9.10812 -118.48747,18.27565 -124,19.49667 -7.95485,1.76199 -62.81891,10.08243 -84.66667,12.84018 -12.98493,1.63902 -30.54579,2.25966 -70,2.47393 -28.96667,0.15731 -54.46667,0.0676 -56.66667,-0.1992 z"
       id="path516" />
    <path
       style="fill:#f39602;stroke-width:1.33333"
       d="M 315.33334,681.84436 C 237.45709,673.7143 170.91849,642.84253 118.56516,590.55026 69.225276,541.2679 39.492023,480.57054 29.140977,408.00001 c -3.294044,-23.09433 -1.374611,-80.29969 2.835592,-84.50991 1.874016,-1.87401 42.920338,4.74754 45.520088,7.34326 1.193527,1.19168 21.530589,60.29168 45.193473,131.33334 23.66288,71.04166 44.22852,130.88657 45.70141,132.98869 2.85753,4.0783 11.67697,8.76704 16.58148,8.81535 9.17865,0.0904 11.47003,-2.14284 84.15696,-82.0221 39.01158,-42.87174 71.49291,-77.94862 72.18076,-77.94862 0.68785,0 33.21398,35.1037 72.28031,78.00825 60.15553,66.06572 71.89193,78.33754 76.66181,80.15918 10.07269,3.8468 20.70505,-0.27908 25.63177,-9.94638 1.37,-2.68825 20.94607,-60.68772 43.50238,-128.88772 34.55556,-104.48031 43.14677,-129.76595 45.44849,-133.76391 0.38376,-0.66658 39.38288,-6.85919 43.34242,-6.88228 4.39205,-0.0256 4.59566,0.83322 6.71058,28.30525 3.26696,42.43652 -3.94837,90.43279 -19.6035,130.40214 -41.70745,106.48387 -133.78945,180.00409 -248.00739,198.01431 -12.76436,2.01272 -60.51119,3.62907 -71.94427,2.4355 z M 210.12178,453.66668 c -2.17489,-7.00354 -24.63897,-97.78307 -25.24068,-102 -0.61067,-4.27976 -0.34704,-5 1.83011,-5 1.39894,0 15.61122,2.06505 31.58284,4.58901 30.77944,4.86402 61.79596,8.74003 69.9606,8.74271 2.70672,8.8e-4 5.20885,0.46687 5.56031,1.03552 0.35144,0.56864 -1.26315,3.57781 -3.58799,6.68703 -8.22456,10.99949 -76.2502,88.10904 -77.80378,88.19343 -0.86725,0.0471 -1.90289,-0.96436 -2.30141,-2.2477 z m 222.5449,-39.05708 c -38.12215,-43.69785 -44.84171,-51.91435 -43.81495,-53.57568 0.35146,-0.56865 2.85359,-1.03464 5.56031,-1.03552 8.16464,-0.003 39.18116,-3.87869 69.9606,-8.74271 15.97162,-2.52396 30.2488,-4.58901 31.7271,-4.58901 3.47654,0 3.60982,-0.72721 -9.65284,52.66667 -13.03546,52.47912 -14.23906,56.68247 -16.20816,56.60412 -0.86463,-0.0344 -17.77206,-18.63194 -37.57206,-41.32787 z"
       id="path514" />
  </g>
</svg>
